<svg height="512pt" viewBox="-6 0 512 512.00234" width="512pt" xmlns="http://www.w3.org/2000/svg"><path d="m218.121094 334.925781c-8.214844 0-15.898438-2.648437-21.632813-7.453125-4.75-3.980468-8.699219-9.652344-12.074219-17.339844-3.925781-8.90625-5.488281-17.074218-4.644531-24.273437 1.027344-8.863281 5.90625-17.550781 13.390625-23.839844 6.105469-5.132812 15.847656-10.621093 24.886719-10.621093.417969 0 .976563.007812 1.5625.058593 6.476563.460938 18.566406 2.097657 26.425781 7.828125 7.566406 5.523438 12.230469 15.523438 12.789063 27.441406.78125 16.503907-6.613281 32.734376-18.835938 41.347657-6.269531 4.417969-14.035156 6.851562-21.867187 6.851562zm0 0" fill="#644c4c"/><g fill="#c67045"><path d="m485.644531 109.4375c-3.496093 0-7.28125-1.671875-10.125-4.472656-3.902343-3.847656-5.992187-9.296875-7.226562-13.0625l-.402344-1.234375.960937-.871094c3.300782-2.988281 6.65625-6.09375 9.980469-9.222656.242188-.21875.460938-.429688.679688-.640625l1.019531-.972656 1.308594.65625c8.464844 3.445312 14.019531 13.527343 12.394531 22.519531-.335937 1.878906-.894531 3.304687-1.710937 4.351562-.84375 1.074219-2.125 1.933594-3.613282 2.429688-1.03125.34375-2.128906.519531-3.265625.519531zm0 0"/><path d="m457.523438 135.5625c-.800782 0-1.628907-.070312-2.261719-.132812-2.921875-.289063-5.925781-.78125-8.15625-2.429688-2.671875-1.953125-4.058594-5.394531-5.476563-9.359375l-3.183594-8.929687 1.210938-.878907c3.609375-2.621093 7.222656-5.390625 11.042969-8.460937l1.5-1.203125 1.261719 1.449219c6.285156 7.199218 9.695312 13.878906 10.417968 20.414062.347656 3.207031-.265625 7.460938-3.144531 8.914062-.832031.421876-1.851563.617188-3.210937.617188zm0 0"/><path d="m408.246094 35.003906-.042969-.050781c-.808594-.679687-1.605469-1.328125-2.402344-1.976563l-.558593-.457031c-3.789063-3.050781-7.371094-5.941406-9.78125-9.777343-2.722657-4.320313-3.550782-10.855469.269531-14.457032 1.527343-1.4375 3.699219-2.226562 6.121093-2.226562 1.371094 0 2.769532.265625 4.050782.773437 3.226562 1.277344 6.199218 4.105469 8.363281 7.957031 1.847656 3.296876 3.046875 7.09375 4.023437 10.390626l.324219 1.089843-.769531.835938c-2.410156 2.609375-4.648438 5.386719-6.554688 7.789062l-1.402343 1.761719zm0 0"/><path d="m380.824219 147.09375c-7.84375-8.902344-15.597657-18.121094-23.050781-27.414062l-1.179688-1.46875 1.398438-1.265626c6.707031-6.066406 13.605468-12.066406 20.507812-17.828124l1.378906-1.152344 1.292969 1.246094c.554687.535156 1.097656 1.03125 1.605469 1.488281l23.71875 21.660156c.089844.078125.167968.152344.246094.230469l1.449218 1.453125-1.480468 1.417969c-7.332032 6.976562-15.003907 14.371093-22.800782 21.972656l-1.960937 1.910156zm0 0"/><path d="m386.855469 62.699219c-3.425781-1.515625-7.023438-3.1875-10.046875-5.472657-3.5-2.652343-5.851563-5.96875-6.613282-9.34375-.839843-3.742187.445313-7.707031 3.128907-9.644531 1.367187-.988281 3.046875-1.488281 4.988281-1.488281 2.542969 0 5.464844.898438 8.019531 2.464844 4.476563 2.769531 7.976563 6.976562 9.855469 11.855468l.6875 1.1875-.804688 1.148438c-2.207031 2.738281-4.4375 5.582031-6.820312 8.679688l-.957031 1.25zm0 0"/><path d="m359.429688 168.597656c-7.984376-9.265625-15.902344-18.84375-23.535157-28.472656l-1.125-1.421875 1.304688-1.261719c5.160156-4.992187 10.519531-10.050781 15.933593-15.042968l1.574219-1.449219 1.339844 1.667969c7.46875 9.289062 15.207031 18.484374 23.003906 27.332031.085938.066406.148438.117187.207031.175781l1.558594 1.425781-1.507812 1.476563c-5.285156 5.1875-10.609375 10.464844-15.824219 15.675781l-1.523437 1.523437zm0 0"/><path d="m330.417969 197.945312-.132813-.164062c-8.550781-8.5625-17.070312-17.457031-25.324218-26.457031l-1.273438-1.390625 1.308594-1.351563c8.566406-8.867187 17.0625-17.4375 25.257812-25.480469l1.585938-1.554687 1.382812 1.738281c7.746094 9.757813 15.660156 19.316406 23.527344 28.417969l1.210938 1.402344-1.308594 1.316406c-7.871094 7.914063-15.695313 15.871094-23.253906 23.652344l-1.5625 1.609375zm0 0"/><path d="m306.898438 222.792969c-8.734376-8.753907-16.902344-18.277344-24.285157-28.304688l-.988281-1.34375 1.140625-1.214843c5.480469-5.828126 11.074219-11.722657 16.625-17.523438l1.476563-1.539062 1.441406 1.570312c8.144531 8.871094 16.589844 17.6875 25.101562 26.199219.027344.023437.277344.214843.277344.214843l1.707031 1.371094-1.519531 1.578125c-5.789062 5.996094-11.710938 12.195313-18.109375 18.953125l-1.414063 1.496094zm0 0"/><path d="m140.289062 505.949219c-10.011718 0-20.03125-1.554688-29.785156-4.621094-24.226562-7.621094-47.425781-24.074219-68.949218-48.898437-20.046876-23.117188-31.363282-45.140626-34.589844-67.332032-4.550782-31.230468 8.355468-64.238281 32.878906-84.089844 19.207031-15.53125 43.289062-22.558593 68.347656-28.953124l.082032-.023438c6.378906-1.621094 12.941406-3.289062 18.542968-7.171875 10.1875-7.054687 14.164063-19.039063 18.011719-30.628906l.050781-.15625c1.117188-3.363281 2.175782-6.542969 3.394532-9.652344 9.742187-24.925781 31.851562-44.746094 57.703124-51.71875 5.421876-1.460937 10.902344-2.203125 16.292969-2.203125 16.617188 0 33.644531 6.960938 52.0625 21.285156l1.726563 1.339844-6 6.425781-1.433594-1.042969c-12.535156-9.15625-28.171875-14.199218-44.023438-14.199218-8.867187 0-17.492187 1.535156-25.640624 4.566406-23.128907 8.597656-40.9375 28.875-46.476563 52.914062-.449219 1.929688-.828125 3.917969-1.199219 5.84375l-.054687.292969c-1.394531 7.347657-2.710938 14.292969-7.222657 19.417969-4.503906 5.128906-11.550781 7.476562-18.378906 9.4375-4.402344 1.265625-9.011718 2.507812-13.339844 3.660156-22.605468 6.070313-45.988281 12.351563-63.820312 27.839844-25.847656 22.445312-35.230469 62.96875-22.8125 98.539062 10.894531 31.222657 37.21875 58.386719 72.207031 74.523438 11.105469 5.117188 20.402344 7.875 29.265625 8.683594 1.714844.160156 3.5.242187 5.316406.242187 17.761719 0 36.050782-7.730469 50.179688-21.207031 13.324219-12.714844 23.46875-30.734375 29.332031-52.109375.496094-1.816406.960938-3.652344 1.414063-5.453125l.226562-.890625c1.914063-7.589844 3.707032-14.6875 7.292969-21.113281 8.078125-14.527344 22.976563-22.210938 38.75-30.347656 9.019531-4.644532 18.3125-9.429688 26.289063-15.617188 15.632812-12.128906 26.445312-30.28125 29.664062-49.796875 3.1875-19.363281-1.152344-39.902344-11.898438-56.351563l-.863281-1.316406 2.699219-2.882812c.816406-.875 1.632812-1.75 2.449219-2.617188l1.847656-1.953125 1.339844 2.328125c.140625.238282.289062.425782.445312.554688 19.734375 16.710937 20.351563 48.648437 14.886719 70.921875-5.679688 23.132812-22.308594 44.039062-45.621094 57.359375-3.496094 2-7.214844 3.882812-10.8125 5.699218l-1.054687-1.707031.902343 1.78125c-10.113281 5.121094-20.570312 10.417969-28.144531 19.203125-9.453125 10.980469-12.765625 25.367188-15.972656 39.28125l-.089844.398438c-.675781 2.921875-1.371093 5.945312-2.113281 8.851562-6.410156 25.082032-17.367188 43.945313-32.570312 56.078125-13.402344 10.695313-31.421876 16.585938-50.734376 16.585938zm0 0"/><path d="m285.871094 244.519531c-.152344-.269531-.296875-.460937-.457032-.601562-9.011718-7.867188-17.277343-16.648438-24.566406-26.109375l-1.042968-1.355469 1.179687-1.242187c.546875-.574219 1.101563-1.167969 1.636719-1.746094 4.820312-5.171875 9.664062-10.363282 14.535156-15.5625l1.632812-1.746094 1.429688 1.917969c7.285156 9.796875 15.355469 19.136719 23.980469 27.761719l1.371093 1.371093-1.328124 1.414063c-4.816407 5.117187-9.773438 10.441406-15.15625 16.273437l-1.867188 2.023438zm0 0"/><path d="m260.140625 272.347656c-2.488281-6.917968-6.542969-12.570312-11.71875-16.351562-3.894531-2.832032-9.097656-5.054688-15.449219-6.589844l-3.359375-.816406 2.382813-2.507813c7.046875-7.414062 14.707031-15.554687 23.417968-24.886719l1.59375-1.707031 1.441407 1.839844c7.292969 9.320313 15.464843 17.953125 24.289062 25.65625.136719.117187.300781.214844.519531.3125l2.582032 1.117187-1.902344 2.070313c-6.523438 7.105469-13.207031 14.472656-20.421875 22.523437l-2.238281 2.492188zm0 0"/><path d="m134.578125 425.988281c-1.996094 0-4.03125-.375-6.054687-1.121093-4.527344-1.675782-8.359376-4.808594-11.828126-7.941407-13.714843-12.355469-24.589843-27.375-33.417968-40.433593-.535156-.78125-1.140625-1.601563-1.78125-2.472657l-.203125-.273437c-3.292969-4.453125-7.386719-9.988282-5.222657-14.277344.988282-1.953125 3.15625-4.277344 7.882813-4.277344 5.054687 0 10.519531 2.703125 10.574219 2.730469 19.714844 9.582031 33.859375 27.714844 45.566406 43.957031 2.890625 4.011719 5.328125 7.660156 5.898438 11.742188.292968 2.113281.027343 4.25-.746094 6.019531-.792969 1.824219-2.199219 3.441406-3.957032 4.550781-1.871093 1.175782-4.191406 1.796875-6.710937 1.796875zm0 0"/></g><path d="m416.101562 123.28125c-2.359374 0-4.578124-1.839844-6.832031-3.890625l-23.742187-21.683594c-3.007813-2.746093-5.558594-5.269531-6.300782-8.382812-1.054687-4.414063 1.746094-9.136719 4.933594-13.578125 7.804688-10.882813 16.175782-21.519532 24.878906-31.613282 1.453126-1.683593 2.980469-3.613281 4.425782-5.441406 5.75-7.25 12.886718-16.25 20.464844-18.394531 1.121093-.316406 2.324218-.476563 3.574218-.476563 6.410156 0 14.320313 4.179688 22.878906 12.089844 8.585938 7.945313 16.398438 18.359375 20.332032 25.15625 1.535156 2.644532 3.085937 5.765625 2.917968 8.855469-.230468 4.453125-3.863281 8.21875-7.570312 11.699219-9.4375 8.855468-16.875 15.484375-24.109375 21.488281l-.230469.191406-.273437.117188c-.238281.097656-.4375.222656-.601563.378906-.105468.097656-.1875.199219-.269531.324219l-.171875.265625-.246094.203125c-10.183594 8.320312-19.691406 15.105468-29.0625 20.746094-1.664062 1-3.285156 1.902343-4.867187 1.945312zm26.644532-40.976562c-.5 0-.984375.183593-1.359375.515624-3.097657 2.757813-6.089844 5.660157-8.890625 8.613282-.777344.816406-.742188 2.105468.070312 2.882812.375.355469.875.554688 1.398438.554688.558594 0 1.078125-.226563 1.460937-.628906 2.726563-2.871094 5.640625-5.6875 8.667969-8.386719.402344-.359375.644531-.855469.675781-1.398438s-.148437-1.0625-.507812-1.464843c-.394531-.445313-.929688-.6875-1.515625-.6875zm-26.871094-22.140626c-.59375 0-1.136719.246094-1.535156.691407-2.632813 2.992187-5.234375 6.089843-7.722656 9.203125-.699219.875-.558594 2.160156.316406 2.859375.363281.285156.808594.441406 1.269531.441406.621094 0 1.203125-.277344 1.59375-.765625 2.460937-3.089844 5.019531-6.136719 7.597656-9.058594.355469-.40625.535157-.929687.5-1.472656-.03125-.539062-.273437-1.035156-.679687-1.390625-.375-.328125-.847656-.507813-1.339844-.507813zm48.613281 1.238282c-.523437 0-1.019531.195312-1.402343.550781l-6.933594 6.515625c-.8125.769531-.855469 2.058594-.089844 2.875.382812.414062.90625.636719 1.480469.636719.519531 0 1.011719-.195313 1.390625-.550781l6.941406-6.515626c.398438-.375.625-.875.644531-1.410156.019531-.542968-.179687-1.066406-.554687-1.464844-.386719-.410156-.910156-.636718-1.476563-.636718zm-27.917969-24.113282c-.339843 0-.835937.082032-1.304687.476563-2.375 2.007813-4.59375 4.273437-6.597656 6.746094-.34375.421875-.5.953125-.441407 1.492187.058594.539063.320313 1.019532.742188 1.359375.363281.296875.816406.457031 1.273438.457031.605468 0 1.191406-.28125 1.574218-.753906 1.820313-2.253906 3.863282-4.335937 6.066406-6.191406.855469-.726562.964844-2.007812.242188-2.859375-.386719-.464844-.957031-.726563-1.554688-.726563zm0 0" fill="#f7b36f"/><path d="m132.488281 486.207031c-1.675781 0-3.355469-.074219-4.996093-.226562-8.386719-.761719-17.261719-3.410157-27.925782-8.335938-33.992187-15.667969-59.535156-41.96875-70.070312-72.164062-11.894532-34.042969-2.996094-72.757813 21.636718-94.140625 17.148438-14.878906 40.058594-21.027344 62.214844-26.96875l1.300782-.351563c3.984374-1.074219 8.105468-2.179687 12.105468-3.332031 7.078125-2.03125 15.070313-4.699219 20.308594-10.65625 5.226562-5.945312 6.710938-13.75 8.148438-21.300781.402343-2.121094.773437-4.070313 1.226562-6.023438 5.167969-22.390625 22.417969-42.027343 43.941406-50.023437 7.527344-2.796875 15.589844-4.214844 23.972656-4.214844 14.847657 0 29.425782 4.519531 41.046876 12.726562l1.871093 1.320313-8.296875 8.914063c-10.964844 11.75-22.308594 23.898437-33.601562 35.730468l-.6875.722656-.996094-.117187c-1.214844-.144531-2.460938-.265625-3.816406-.371094-.582032-.042969-1.191406-.066406-1.800782-.066406-10.136718 0-20.867187 5.984375-27.527343 11.582031-8.257813 6.941406-13.65625 16.59375-14.8125 26.480469-.925781 7.914063.746093 16.789063 4.96875 26.382813 3.628906 8.261718 7.941406 14.414062 13.183593 18.8125 6.421876 5.378906 15.042969 8.34375 24.273438 8.34375 8.699219 0 17.285156-2.675782 24.179688-7.535157 13.535156-9.542969 21.410156-26.730469 20.550781-44.859375-.082031-1.722656-.253907-3.464844-.507813-5.171875l-.15625-1.050781.785156-.71875c.0625-.058594.199219-.171875.199219-.171875.003907 0-.015625.019531-.035156.042969 11.414063-12.785156 23.191406-25.703125 35.039063-38.445313l1.792968-1.929687 1.375 2.242187c9.382813 15.273438 13.097656 34.132813 10.199219 51.734375-3.050781 18.519532-13.304687 35.742188-28.136719 47.253906-7.667968 5.941407-16.769531 10.636719-25.570312 15.175782-15.699219 8.09375-31.855469 16.421875-40.535156 32.027344-3.867188 6.941406-5.804688 14.644531-7.679688 22.09375-.433594 1.730468-1.007812 4.007812-1.621094 6.25-5.667968 20.675781-15.421875 38.054687-28.207031 50.257812-13.378906 12.761719-30.632813 20.082031-47.339844 20.082031zm-48.308593-135.171875c-7.578126 0-10.726563 4.613282-11.730469 6.597656-3.300781 6.523438 1.828125 13.460938 5.574219 18.523438.652343.875 1.328124 1.792969 1.886718 2.609375 8.992188 13.292969 20.070313 28.582031 34.0625 41.1875 3.613282 3.25 8.003906 6.824219 13.144532 8.71875 2.472656.90625 4.976562 1.367187 7.445312 1.367187 3.3125 0 6.390625-.835937 8.894531-2.414062 2.433594-1.527344 4.390625-3.789062 5.511719-6.363281 1.082031-2.484375 1.445312-5.3125 1.042969-8.1875-.75-5.425781-4.140625-10.136719-6.617188-13.570313-12.003906-16.648437-26.53125-35.242187-47.105469-45.246094-4.398437-2.136718-8.472656-3.222656-12.109374-3.222656zm0 0" fill="#f7b36f"/><path d="m486.449219 75.121094c1.789062-2.605469 3.066406-5.53125 3.238281-8.894532.246094-4.65625-1.742188-8.777343-3.722656-12.195312-5.75-9.9375-31.738282-45.773438-53.683594-39.566406-3.335938.945312-6.464844 2.792968-9.394531 5.121094-.882813-2.625-1.917969-5.242188-3.335938-7.761719-2.011719-3.582031-5.625-8.332031-11.40625-10.628907-5.777343-2.296874-12.4375-1.2226558-16.574219 2.675782-6.175781 5.816406-5.25 15.730468-1.242187 22.101562 2.945313 4.6875 7.097656 8.035156 11.109375 11.273438.988281.800781 1.976562 1.597656 2.941406 2.410156.101563.085938.210938.148438.316406.222656-.082031.097656-.171874.203125-.253906.296875-1.449218 1.683594-2.871094 3.398438-4.300781 5.105469-2.511719-4.566406-6.179687-8.480469-10.632813-11.222656-5.160156-3.179688-13.421874-5.277344-19.726562-.742188-4.671875 3.367188-6.882812 9.753906-5.5 15.890625 1.371094 6.105469 5.578125 10.355469 8.863281 12.847657 3.019531 2.289062 6.292969 3.941406 9.558594 5.425781-1.160156 1.578125-2.335937 3.148437-3.472656 4.730469-4.023438 5.609374-7.519531 11.734374-5.902344 18.519531.3125 1.308593.800781 2.515625 1.398437 3.636719-34.242187 28.585937-65.753906 60.851562-96.082031 93.09375-25.929687-20.339844-50.230469-27.089844-74.25-20.613282-27.667969 7.460938-51.339843 28.675782-61.773437 55.367188-1.289063 3.300781-2.4375 6.757812-3.546875 10.101562-3.703125 11.140625-7.199219 21.664063-15.707031 27.5625-4.679688 3.242188-10.726563 4.785156-16.570313 6.277344l-.105469.023438c-24.71875 6.308593-50.535156 13.832031-70.65625 30.121093-26.15625 21.171875-39.921875 56.375-35.070312 89.675781 3.402344 23.367188 15.179687 46.402344 36.011718 70.429688 22.261719 25.683594 46.390626 42.742188 71.707032 50.707031 10.445312 3.285157 21.128906 4.890625 31.558594 4.890625 20.417968 0 39.847656-6.15625 54.558593-17.894531 16.257813-12.976563 27.917969-32.933594 34.660157-59.320313.792968-3.105468 1.527343-6.292968 2.238281-9.375 3.039062-13.203124 6.183593-26.851562 14.664062-36.699218 6.804688-7.902344 16.304688-12.703125 26.359375-17.785156 3.691406-1.867188 7.507813-3.796876 11.164063-5.886719 24.746093-14.140625 42.425781-36.441407 48.5-61.179688 3.394531-13.835937 4.082031-28.476562 1.929687-41.230469-2.554687-15.152343-9.050781-27.511718-18.777344-35.75-.257812-.21875-.539062-.386718-.828124-.53125 31.359374-33.15625 63.660156-65.570312 96.542968-96.847656.304688-.289062.535156-.621094.726563-.96875 1.261719.492188 2.640625.808594 4.125.808594.089843 0 .183593 0 .277343-.003906 3.042969-.078125 5.539063-1.433594 7.832032-2.8125 3.328125-2.003906 6.578125-4.101563 9.773437-6.265625l1.933594 5.417969c1.347656 3.792968 3.199219 8.984374 7.59375 12.210937 3.421875 2.511719 7.554687 3.214844 11.148437 3.570313.941407.09375 1.90625.164062 2.878907.164062 1.984375 0 4-.292969 5.925781-1.265625 5.652344-2.859375 7.03125-9.621094 6.4375-14.996094-1.0625-9.597656-6.601562-17.660156-11.726562-23.566406 1.859374-1.566406 3.699218-3.144531 5.515624-4.734375 1.601563 4.140625 3.90625 8.609375 7.574219 12.222656 4.070313 4.011719 9.335938 6.207032 14.390625 6.207032 1.773438 0 3.527344-.269532 5.191406-.832032 2.648438-.890625 4.875-2.421875 6.445313-4.433594 1.429687-1.832031 2.378906-4.125 2.902344-7.015624 1.984375-11.007813-3.960938-22.816407-13.75-28.089844zm-89.296875-53.4375c-2.328125-3.703125-2.984375-9.183594-.050782-11.945313 1.871094-1.761719 5.1875-2.191406 8.066407-1.050781 2.800781 1.113281 5.414062 3.628906 7.355469 7.085938 1.695312 3.015624 2.820312 6.511718 3.847656 9.976562-2.375 2.582031-4.585938 5.3125-6.644532 7.898438-.050781-.046876-.089843-.101563-.140624-.148438-1.011719-.855469-2.046876-1.691406-3.085938-2.527344-3.660156-2.953125-7.117188-5.742187-9.347656-9.289062zm-19.140625 33.945312c-3.128907-2.371094-5.210938-5.28125-5.867188-8.191406-.660156-2.933594.328125-6.121094 2.347657-7.578125 2.882812-2.074219 7.496093-.960937 10.789062 1.0625 4.09375 2.523437 7.308594 6.382813 9.042969 10.871094.050781.128906.121093.238281.183593.359375-2.316406 2.882812-4.597656 5.785156-6.839843 8.71875-3.394531-1.5-6.824219-3.097656-9.65625-5.242188zm-46.355469 88.902344c7.628906 9.609375 15.550781 19.1875 23.574219 28.480469-7.800781 7.839843-15.558594 15.726562-23.265625 23.667969-.089844-.109376-.167969-.226563-.269532-.332032-8.574218-8.5625-17.066406-17.433594-25.265624-26.375 8.289062-8.574218 16.695312-17.074218 25.226562-25.441406zm-53.042969 54.742188c7.351563 9.875 15.464844 19.277343 24.167969 27.972656-5.085938 5.414062-10.140625 10.847656-15.167969 16.296875-.222656-.414063-.511719-.800781-.886719-1.128907-8.90625-7.769531-17.070312-16.457031-24.289062-25.820312.550781-.585938 1.105469-1.183594 1.648438-1.765625 4.820312-5.167969 9.660156-10.355469 14.527343-15.554687zm-29.015625 55.109374c-4.710937-3.433593-10.585937-5.574218-16.148437-6.921874 7.859375-8.273438 15.703125-16.632813 23.421875-24.902344 7.339844 9.382812 15.582031 18.105468 24.554687 25.929687.316407.277344.671875.484375 1.039063.644531-6.867188 7.480469-13.679688 14.992188-20.4375 22.535157-2.601563-7.21875-6.851563-13.21875-12.429688-17.285157zm-55.152344 9.167969c5.707032-4.796875 15.128907-10.15625 23.601563-10.15625.464844 0 .929687.019531 1.390625.050781 6.304688.460938 17.984375 2.039063 25.414062 7.453126 7.074219 5.15625 11.441407 14.605468 11.976563 25.925781.75 15.832031-6.3125 31.382812-17.996094 39.617187-12.527343 8.832032-30.175781 8.613282-41.054687-.503906-4.511719-3.777344-8.285156-9.210938-11.535156-16.601562-3.777344-8.582032-5.285157-16.402344-4.488282-23.246094.96875-8.359375 5.597656-16.574219 12.691406-22.539063zm63.742188-54.222656c-11.191406 12-22.75 24.386719-34.265625 36.449219-1.425781-.164063-2.75-.289063-3.894531-.371094-11.214844-.824219-23.246094 5.648438-30.769532 11.972656-8.652343 7.273438-14.308593 17.398438-15.515624 27.78125-.964844 8.285156.757812 17.511719 5.117187 27.421875 3.761719 8.550781 8.257813 14.941407 13.738281 19.535157 6.992188 5.863281 16.183594 8.8125 25.558594 8.8125 8.835938 0 17.839844-2.625 25.324219-7.898438 14.09375-9.933594 22.292969-27.785156 21.402343-46.589844-.089843-1.832031-.269531-3.625-.527343-5.375.117187-.105468.246093-.199218.351562-.316406 11.496094-12.875 23.15625-25.667969 34.960938-38.367188 9.152343 14.894532 12.78125 33.105469 9.9375 50.363282-2.972657 18.027344-12.957031 34.792968-27.394531 45.992187-7.535157 5.84375-16.574219 10.503907-25.316407 15.011719-15.894531 8.191406-32.328125 16.667969-41.308593 32.796875-3.980469 7.148437-5.960938 14.996094-7.871094 22.585937-.523438 2.078126-1.046875 4.15625-1.609375 6.210938-5.570313 20.316406-15.136719 37.375-27.667969 49.332031-14.335938 13.683594-33.316406 20.902344-50.769531 19.316407-8.136719-.742188-16.800781-3.332032-27.269531-8.15625-33.496094-15.441407-58.652344-41.324219-69.019532-71.011719-11.621094-33.289063-2.960937-71.109375 21.0625-91.96875 16.78125-14.570313 39.476563-20.660157 61.421875-26.554688 4.421875-1.183593 8.992188-2.414062 13.4375-3.6875 7.351563-2.113281 15.660157-4.894531 21.257813-11.265625 5.601562-6.371094 7.140625-14.464844 8.628906-22.292968.390625-2.050782.757812-3.992188 1.199219-5.898438 5.015625-21.746094 21.769531-40.820312 42.6875-48.597656 20.578125-7.652344 45.238281-4.386719 63.175781 8.277344-2.023438 2.164062-4.046875 4.332031-6.0625 6.492187zm50.128906 12.050781c-8.703125-8.714844-16.796875-18.152344-24.097656-28.078125 5.496094-5.84375 11.03125-11.683593 16.613281-17.503906 8.175781 8.898437 16.628907 17.726563 25.164063 26.253906.136718.136719.285156.246094.433594.359375-6.066407 6.292969-12.105469 12.617188-18.113282 18.96875zm2.011719 11.65625c19.03125 16.113282 19.558594 47.191406 14.226563 68.902344-5.546876 22.605469-21.828126 43.054688-44.667969 56.105469-3.476563 1.988281-7.199219 3.867187-10.800781 5.6875-10.316407 5.214843-20.984376 10.609375-28.832032 19.722656-9.777344 11.355469-13.148437 25.996094-16.410156 40.148437-.699219 3.039063-1.421875 6.179688-2.191406 9.191407-6.300782 24.644531-17.023438 43.15625-31.878906 55.011719-20.152344 16.085937-50.300782 20.539062-78.667969 11.613281-23.875-7.507813-46.765625-23.753907-68.035157-48.292969-19.789062-22.828125-30.953124-44.519531-34.128906-66.3125-4.449218-30.542969 8.179688-62.828125 32.167969-82.246094 18.871094-15.277344 42.734375-22.234375 67.578125-28.574218l.101562-.027344c6.539063-1.667969 13.296876-3.390625 19.167969-7.457032 10.722657-7.429687 14.8125-19.742187 18.769531-31.652343 1.125-3.390625 2.191407-6.597657 3.40625-9.707031 9.519532-24.351563 31.117188-43.710938 56.363282-50.515626 21.53125-5.804687 42.730468.152344 66.609375 18.730469-1.101563 1.175781-2.199219 2.351563-3.300781 3.527344-20.429688-14.914063-47.832032-18.707031-71.539063-9.890625-23.753906 8.832031-42.042969 29.65625-47.734375 54.347656-.476562 2.058594-.878906 4.164063-1.265625 6.203125-1.34375 7.074219-2.613281 13.757813-6.761719 18.476563-4.160156 4.730468-10.890625 6.960937-17.425781 8.835937-4.382813 1.257813-8.917969 2.476563-13.304687 3.652344-22.828126 6.128906-46.4375 12.464844-64.617188 28.253906-26.453125 22.96875-36.074219 64.386719-23.390625 100.710938 11.082031 31.742187 37.785156 59.324219 73.257813 75.679687 11.328124 5.21875 20.832031 8.039063 29.914062 8.863282 1.824219.164062 3.660156.246093 5.507812.246093 18.128907 0 37.042969-7.902343 51.558594-21.757812 13.589844-12.964844 23.921875-31.304688 29.875-53.03125.582032-2.125 1.125-4.285157 1.652344-6.375 1.867188-7.410157 3.632812-14.410157 7.097656-20.632813 7.796875-14.003906 22.445313-21.558594 37.957032-29.554687 9.066406-4.675781 18.445312-9.507813 26.566406-15.808594 16.023437-12.429687 27.105468-31.039063 30.40625-51.050781 3.277344-19.878906-1.171875-40.90625-12.195313-57.765625 1.355469-1.453125 2.710938-2.90625 4.070313-4.355469.230468.402344.519531.78125.894531 1.097656zm50.617187-65.75c-7.996093-9.273437-15.894531-18.824218-23.484374-28.410156 5.246093-5.066406 10.546874-10.070312 15.902343-15.003906 7.460938 9.277344 15.195313 18.480468 23.0625 27.398437.109375.125.238281.222657.359375.328125-5.296875 5.203125-10.578125 10.4375-15.839844 15.6875zm21.574219-21.285156c-.019531-.019531-.027343-.042969-.046875-.0625-7.898437-8.953125-15.664062-18.199219-23.144531-27.511719 6.714844-6.0625 13.53125-11.996093 20.453125-17.777343.570312.546874 1.128906 1.058593 1.652344 1.535156l23.746094 21.675781c.050781.046875.105468.097656.160156.144531-7.640625 7.273438-15.246094 14.609375-22.820313 21.996094zm37.539063-26.382812c-1.429688.859374-2.800782 1.632812-3.886719 1.664062-.019531 0-.042969 0-.0625 0-1.660156 0-3.621094-1.664062-5.496094-3.375l-23.746093-21.675781c-2.753907-2.515625-5.082032-4.804688-5.695313-7.371094-.867187-3.636719 1.703125-7.890625 4.613281-11.945313 7.738282-10.796874 16.070313-21.382812 24.761719-31.472656 1.425781-1.652344 2.910156-3.523437 4.484375-5.507812 5.5625-7.011719 12.484375-15.738282 19.445312-17.707032 6.164063-1.746093 14.878907 2.214844 24.546876 11.15625 8.433593 7.796876 16.101562 18.019532 19.964843 24.6875 1.386719 2.394532 2.78125 5.183594 2.648438 7.738282-.195313 3.714844-3.539063 7.148437-6.949219 10.351562-7.625 7.15625-15.605469 14.433594-24.019531 21.40625-.429688.1875-.839844.433594-1.199219.777344-.222656.210938-.414062.449219-.578125.695312-9.0625 7.414063-18.640625 14.445313-28.832031 20.578126zm41.832031 6.632812c.296875 2.679688-.21875 5.984375-2.058594 6.914062-1.03125.519532-2.710937.4375-4.375.273438-2.628906-.257812-5.320312-.6875-7.164062-2.042969-2.222657-1.632812-3.480469-4.78125-4.777344-8.421875l-2.679687-7.519531c3.792968-2.761719 7.5-5.613281 11.121093-8.527344 4.386719 5.03125 9.097657 11.765625 9.933594 19.324219zm30.375-24.46875c-.285156 1.566406-.71875 2.707031-1.320313 3.480469-.589843.753906-1.535156 1.375-2.667968 1.757812-4.023438 1.355469-8.597656-.769531-11.351563-3.480469-3.453125-3.402343-5.40625-8.230468-6.726562-12.265624 3.402343-3.082032 6.738281-6.171876 10.007812-9.238282.230469-.214844.460938-.433594.6875-.652344.042969.019532.074219.046876.117188.0625 7.671875 3.078126 12.71875 12.203126 11.253906 20.335938zm0 0"/><path d="m433.378906 48.320312c1.738282-2.144531 3.691406-4.140624 5.796875-5.921874 1.703125-1.4375 1.914063-3.980469.480469-5.679688-1.4375-1.703125-3.980469-1.914062-5.683594-.476562-2.496094 2.105468-4.804687 4.464843-6.859375 7.003906-1.402343 1.730468-1.136719 4.269531.59375 5.671875.746094.601562 1.644531.898437 2.535157.898437 1.175781 0 2.339843-.511718 3.136718-1.496094zm0 0"/><path d="m412.847656 59.527344c-2.65625 3.011718-5.277344 6.136718-7.796875 9.285156-1.386719 1.742188-1.105469 4.277344.636719 5.667969.742188.59375 1.628906.882812 2.511719.882812 1.183593 0 2.355469-.519531 3.152343-1.515625 2.4375-3.050781 4.972657-6.078125 7.542969-8.992187 1.472657-1.667969 1.3125-4.214844-.355469-5.6875-1.671874-1.472657-4.21875-1.3125-5.691406.359375zm0 0"/><path d="m457.542969 73.984375c.988281 0 1.980469-.359375 2.757812-1.09375l6.945313-6.519531c1.625-1.523438 1.703125-4.074219.179687-5.699219-1.523437-1.621094-4.074219-1.703125-5.699219-.179687l-6.945312 6.523437c-1.621094 1.523437-1.703125 4.074219-.179688 5.699219.796876.84375 1.867188 1.269531 2.941407 1.269531zm0 0"/><path d="m445.757812 81.65625c-1.480468-1.664062-4.03125-1.8125-5.691406-.332031-3.113281 2.765625-6.152344 5.707031-9.027344 8.734375-1.53125 1.613281-1.464843 4.164062.148438 5.699218.78125.742188 1.777344 1.109376 2.777344 1.109376 1.066406 0 2.128906-.421876 2.921875-1.257813 2.71875-2.863281 5.59375-5.644531 8.539062-8.261719 1.660157-1.480468 1.8125-4.027344.332031-5.691406zm0 0"/><path d="m145.011719 398.332031c-12.148438-16.847656-26.867188-35.675781-47.851563-45.875-14.414062-7.007812-23.285156-2.078125-26.5 4.273438-3.859375 7.632812 1.933594 15.453125 5.765625 20.628906.679688.914063 1.320313 1.78125 1.828125 2.53125 9.058594 13.390625 20.226563 28.796875 34.382813 41.542969 3.742187 3.371094 8.308593 7.089844 13.789062 9.113281 2.699219.996094 5.464844 1.488281 8.136719 1.488281 3.640625 0 7.101562-.914062 9.960938-2.714844 2.769531-1.742187 5-4.320312 6.28125-7.261718 1.230468-2.820313 1.644531-6.023438 1.195312-9.261719-.824219-5.917969-4.386719-10.859375-6.988281-14.464844zm-1.597657 20.507813c-.644531 1.46875-1.773437 2.769531-3.1875 3.660156-2.851562 1.792969-6.964843 1.976562-11.007812.484375-4.191406-1.546875-7.851562-4.535156-11.1875-7.539063-13.511719-12.171874-24.316406-27.085937-33.101562-40.070312-.605469-.898438-1.292969-1.828125-2.023438-2.8125-2.8125-3.800781-6.664062-9-5.050781-12.191406 1.21875-2.410156 3.574219-3.183594 6.101562-3.183594 4.414063 0 9.355469 2.363281 9.675781 2.519531 19.300782 9.378907 33.265626 27.289063 44.839844 43.339844 2.730469 3.789063 5.035156 7.21875 5.539063 10.855469.242187 1.742187.027343 3.496094-.597657 4.9375zm0 0"/></svg>