<svg height="512pt" viewBox="-7 0 512 512.00216" width="512pt" xmlns="http://www.w3.org/2000/svg"><g fill="#644c4c"><path d="m454.128906 27.273438c-.414062-.375-.882812-.964844-1.464844-1.851563-1.339843-2.042969-2.566406-4.167969-3.65625-6.328125-2.253906-4.503906-2.683593-7.96875-1.277343-10.300781 1.015625-1.683594 3.128906-2.726563 5.511719-2.726563.851562 0 1.679687.132813 2.460937.402344 3.820313 1.324219 6.058594 4.945312 7.050781 6.988281 1.332032 2.714844 2.125 5.800781 2.828125 8.527344l.472657 1.84375-1.820313.5625c-2.460937.761719-5.039063 1.808594-7.882813 3.199219l-1.214843.59375zm0 0"/><path d="m431.3125 41.332031c-5.515625-2.90625-9.648438-8.523437-10.785156-14.65625-.570313-3.128906-.035156-5.777343 1.433594-7.085937.777343-.683594 1.875-1.058594 3.101562-1.058594 1.085938 0 2.226562.289062 3.210938.8125 1.914062 1.019531 3.601562 2.816406 5.476562 5.832031 2.085938 3.363281 3.757812 7.027344 4.972656 10.886719l.460938 1.472656-1.308594.820313c-1.496094.9375-3.011719 1.902343-4.554688 2.890625l-.980468.625zm0 0"/><path d="m408.320312 55.949219c-3.652343-1.878907-6.152343-3.765625-7.867187-5.9375-2.078125-2.613281-2.972656-5.777344-2.382813-8.457031.613282-2.824219 3.078126-5.046876 5.609376-5.0625 2.511718 0 5.0625 1.851562 7.613281 5.503906 1.8125 2.613281 3.378906 5.480468 4.652343 8.519531l.660157 1.574219-1.449219.898437c-.242188.152344-.488281.296875-.746094.445313l-.6875.402344c-1.121094.652343-2.28125 1.332031-3.449218 2.042968l-.957032.582032zm0 0"/><path d="m379.0625 105.839844 1.511719-1.3125c6.976562-6.042969 13.335937-11.488282 19.4375-16.644532l1.507812-1.273437 1.292969 1.492187c.6875.789063 1.371094 1.546876 2.027344 2.277344l.457031.503906c.734375.804688 1.433594 1.570313 2.0625 2.304688l.578125.675781c3.027344 3.535157 5.660156 6.675781 7.816406 9.324219l1.183594 1.457031-1.378906 1.273438c-5.441406 5.03125-11.367188 10.550781-18.648438 17.363281l-1.519531 1.417969zm0 0"/><path d="m369.484375 145.519531c-.085937-.179687-.183594-.332031-.289063-.457031l-15-17.339844 1.464844-1.3125c6.296875-5.628906 12.765625-11.300781 18.816406-16.59375l1.511719-1.324218 16.445313 18.992187-1.402344 1.316406c-6.34375 5.949219-12.519531 11.777344-18.359375 17.320313l-2.011719 1.910156zm0 0"/><path d="m349.074219 165.96875c-1.230469-1.242188-2.253907-2.757812-3.464844-4.617188l-.65625-.988281c-2.914063-4.375-6.347656-8.457031-10.191406-12.125l-1.546875-1.480469 1.578125-1.445312c4.695312-4.296875 9.5625-8.710938 14.871093-13.496094l1.515626-1.367187 14.945312 17.273437c.148438.164063.335938.308594.574219.433594l2.472656 1.296875-2.019531 1.925781c-5.097656 4.855469-10.183594 9.734375-15.273438 14.625l-1.417968 1.359375zm0 0"/><path d="m326.792969 187.070312c-5.222657-5.585937-10.136719-11.511718-14.605469-17.617187l-.195312-.195313-1.339844-1.453124 1.4375-1.355469c4.828125-4.566407 9.996094-9.394531 16.753906-15.648438l1.367188-1.261719 1.359374 1.273438c3.78125 3.542969 7.148438 7.515625 10.007813 11.808594l.628906.964844c1.097657 1.671874 2.347657 3.570312 3.910157 5.179687l1.398437 1.441406-1.445313 1.390625c-5.425781 5.238282-10.832031 10.488282-16.242187 15.753906l-1.75 1.707032zm0 0"/><path d="m307.796875 206.300781c-5.960937-5.503906-11.191406-11.800781-15.546875-18.714843l-.863281-1.375 1.164062-1.128907c4.160157-4.023437 8.636719-8.304687 13.675781-13.089843l1.640626-1.5625 1.347656 1.824218c4.585937 6.226563 9.535156 12.179688 14.710937 17.703125l1.730469 1.472657-1.5625 1.53125c-4.519531 4.417968-9.039062 8.855468-13.535156 13.292968l-1.359375 1.339844zm0 0"/><path d="m270.925781 206.332031 1.40625-1.398437c4.601563-4.574219 9.425781-9.320313 14.332031-14.105469l1.742188-1.695313 1.332031 2.035157c4.285157 6.5625 9.34375 12.578125 15.039063 17.878906l1.519531 1.421875-1.476563 1.464844c-4.328124 4.285156-8.648437 8.574218-12.964843 12.882812l-1.429688 1.425782zm0 0"/><path d="m248.980469 228.46875 1.351562-1.386719c4.972657-5.078125 10.296875-10.464843 16.285157-16.464843l1.429687-1.429688 19.511719 19.929688-1.398438 1.398437c-5.324218 5.320313-10.710937 10.746094-16.472656 16.582031l-1.445312 1.460938zm0 0"/><path d="m248.324219 266.019531c-5.730469-5.515625-11.269531-11.304687-16.460938-17.195312l-1.210937-1.375 1.261718-1.328125c3.792969-3.980469 7.976563-8.320313 12.785157-13.265625l1.445312-1.484375 19.246094 20.078125-1.363281 1.386719c-4.308594 4.375-8.605469 8.753906-12.882813 13.140624l-1.386719 1.421876zm0 0"/><path d="m226.605469 288.25-.242188-.273438c-5.6875-4.953124-11.269531-10.195312-16.542969-15.539062l-1.34375-1.363281 1.300782-1.402344c5.082031-5.488281 10.5-11.273437 16.5625-17.675781l1.5-1.585938 1.449218 1.632813c5.148438 5.800781 10.59375 11.476562 16.183594 16.867187l1.445313 1.394532-1.402344 1.441406c-5.347656 5.496094-10.683594 11.003906-16 16.53125l-1.472656 1.527344zm0 0"/><path d="m208.679688 306.515625c-4.082032-6.011719-9.308594-11.523437-15.109376-15.945313l-1.730468-1.316406 1.460937-1.613281c3.644531-4.027344 7.296875-8.050781 10.980469-12.054687l1.417969-1.539063 1.476562 1.484375c5.363281 5.414062 10.910157 10.625 16.484375 15.484375.078125.058594.175782.136719.277344.242187l1.363281 1.386719-1.34375 1.402344c-4.070312 4.238281-8.128906 8.476563-12.175781 12.722656l-1.710938 1.792969zm0 0"/><path d="m193.117188 322.960938c-.074219-.109376-.144532-.226563-.207032-.34375-4.199218-5.59375-9.144531-10.621094-14.703125-14.945313l-1.6875-1.3125 1.417969-1.59375c3.292969-3.714844 6.59375-7.417969 9.917969-11.113281l1.21875-1.351563 1.460937 1.085938c6.0625 4.496093 11.410156 10.167969 15.464844 16.40625.0625.09375.128906.171875.195312.25l1.1875 1.371093-2.386718 2.515626c-2.929688 3.089843-5.859375 6.175781-8.78125 9.265624l-1.691406 1.792969zm0 0"/><path d="m178.46875 339.570312c-.4375-.21875-.929688-.601562-1.484375-1.050781l-16.753906-13.554687 1.351562-1.5625c3.710938-4.292969 7.414063-8.5 11-12.574219l1.234375-1.402344 1.480469 1.136719c5.492187 4.207031 10.339844 9.109375 14.417969 14.570312.171875.226563.402344.421876.683594.570313l2.316406 1.226563-1.796875 1.910156c-2.65625 2.828125-5.316407 5.660156-7.964844 8.488281-1.605469 1.71875-2.402344 2.148437-2.914063 2.335937l-.804687.285157zm0 0"/><path d="m72.710938 460.816406c-1.578126 0-3.148438-.25-4.546876-.722656-6.164062-2.085938-17.023437-11.339844-19.359374-20.542969-.9375-3.71875-.253907-6.851562 2.03125-9.3125 2.261718-2.441406 5.023437-3.679687 8.195312-3.679687.507812 0 .984375.03125 1.460938.085937 7.878906.855469 16.777343 8.476563 20.8125 15.351563 1.652343 2.820312 4.105468 8.246094 2.050781 12.953125-1.59375 3.621093-5.671875 5.867187-10.644531 5.867187zm0 0"/></g><path d="m425.335938 108.953125c-.960938-1.367187-2.171876-2.96875-4.046876-5.359375-3.917968-4.976562-8.492187-10.3125-10.277343-12.375l-.566407-.667969c-.671874-.792969-1.429687-1.625-2.347656-2.628906-4.488281-4.957031-10.003906-11.050781-8.195312-16.929687 1.65625-5.351563 9.769531-10.085938 16.289062-13.890626 2.132813-1.246093 4.074219-2.378906 5.628906-3.421874 10.167969-6.863282 19.328126-12.703126 27.992188-17.847657 7.625-4.53125 15.792969-8.957031 24.476562-9.019531h.144532c7.863281 0 16.945312 5.058594 17.90625 13.234375.832031 7.015625-4.835938 13.601563-10.863282 16.480469-6.796874 3.261718-14.625 3.523437-22.191406 3.78125-.765625.023437-1.394531.394531-1.746094.996094-.355468.605468-.375 1.339843-.054687 1.964843.796875 1.492188.179687 3.660157-2.019531 7-8.582032 13.066407-17.625 26.089844-26.878906 38.714844l-1.644532 2.242187zm-.300782-43.691406c-.296875 0-.585937.0625-.859375.191406-2.253906 1.050781-4.433593 2.265625-6.472656 3.605469-.457031.300781-.765625.757812-.875 1.289062-.113281.53125-.007813 1.074219.289063 1.523438.375.578125 1.007812.917968 1.695312.917968.398438 0 .78125-.113281 1.105469-.328124 1.957031-1.277344 3.96875-2.398438 5.984375-3.335938 1.007812-.472656 1.453125-1.679688.980468-2.6875-.335937-.714844-1.058593-1.175781-1.847656-1.175781zm17.730469-13.46875c-.398437 0-.785156.117187-1.121094.34375-1.859375 1.230469-3.808593 2.425781-5.792969 3.554687-.976562.550782-1.320312 1.789063-.769531 2.765625.363281.636719 1.039063 1.035157 1.769531 1.035157.347657 0 .683594-.089844.976563-.261719 2.074219-1.167969 4.105469-2.414063 6.058594-3.714844.9375-.621094 1.1875-1.882813.570312-2.820313-.378906-.5625-1.007812-.902343-1.691406-.902343zm24.367187-14.042969c-.324218 0-.640624.078125-.933593.230469l-6.144531 3.1875c-.484376.25-.84375.667969-1.007813 1.183593-.164063.519532-.117187 1.070313.132813 1.554688.351562.671875 1.050781 1.09375 1.8125 1.09375.320312 0 .644531-.078125.945312-.230469l6.136719-3.183593c.484375-.25.839843-.671876 1.003906-1.1875.164063-.515626.117187-1.066407-.132813-1.550782-.351562-.675781-1.046874-1.097656-1.8125-1.097656zm0 0" fill="#d34242"/><path d="m69.546875 491.671875c-12.9375-8.03125-24.976563-19.105469-35.789063-32.917969-29.109374-37.191406-29.171874-68.597656-26.617187-84.007812 2.28125-13.761719 8.324219-25.054688 17.015625-31.796875 9.625-7.460938 21.71875-9.441407 34.523438-11.542969 11.640624-1.921875 23.628906-3.902344 33.667968-10.292969 14.9375-9.519531 22.046875-26.203125 28.921875-42.339843 2.332031-5.496094 4.964844-11.691407 7.910157-17.363282 9.121093-17.550781 22.527343-31.117187 37.75-38.210937 8.046874-3.757813 16.886718-5.742188 25.558593-5.742188 5.8125 0 11.429688.875 16.695313 2.59375l5.257812 1.714844-5.140625 2.042969c-12.148437 4.832031-22.175781 13.136718-28.226562 23.378906-5.570313 9.441406-7.636719 20.988281-5.671875 31.683594l.113281.628906-.269531.578125c-5.800782 12.386719-17.96875 27.089844-28.9375 34.957031-7.492188 5.378906-16.101563 9.515625-24.429688 13.511719-11.195312 5.367187-22.707031 10.890625-31.980468 19.546875-6.03125 5.625-11.019532 12.574219-14.421876 20.101562-2.984374 6.601563-5.800781 16.382813-2.269531 25.480469 3.96875 10.207031 14.304688 15.824219 23.421875 20.78125l.171875.09375c9.152344 4.960938 17.902344 10.804688 19.980469 19.875.917969 4.027344.476562 8.617188-1.382812 14.453125-6.417969 20.144532-23.675782 36.980469-43.96875 42.914063l-.902344.386719zm-10.511719-69.175781c-4.339844 0-8.101562 1.675781-11.179687 4.976562-3.234375 3.488282-4.269531 8.011719-2.984375 13.078125 2.488281 9.828125 13.867187 20.644531 21.992187 23.394531 1.796875.605469 3.8125.925782 5.832031.925782 5.1875 0 11.691407-2.179688 14.378907-8.296875 2.0625-4.710938 1.261719-10.617188-2.257813-16.632813-4.480468-7.625-14.382812-16.292968-23.910156-17.34375-.628906-.066406-1.257812-.101562-1.871094-.101562zm91.613282-156.472656c-.195313 0-.390626.003906-.585938.015624-5.207031.238282-10.351562 3.699219-12.800781 8.613282-2.085938 4.203125-1.796875 8.785156.800781 12.566406 1.605469 2.332031 4.324219 3.964844 7.644531 4.597656.945313.171875 1.910157.265625 2.867188.265625 4.351562 0 8.539062-1.8125 11.195312-4.839843 3.625-4.128907 4.261719-10.363282 1.511719-14.824219-2.578125-4.183594-6.253906-6.394531-10.632812-6.394531zm0 0" fill="#d34242"/><path d="m154.097656 451.15625c-.722656 0-1.441406-.066406-2.140625-.199219-2.253906-.421875-4.050781-1.449219-5.042969-2.894531-.976562-1.429688-1.472656-2.96875-1.472656-4.582031 0-1.296875.324219-2.601563.960938-3.875 1.773437-3.566407 5.589844-6.179688 9.296875-6.359375.140625-.011719.273437-.015625.421875-.015625 2.035156 0 4.929687.773437 7.195312 4.460937 1.808594 2.925782 1.34375 7.230469-1.089844 10.003906-1.914062 2.171876-4.949218 3.460938-8.128906 3.460938zm0 0" fill="#d34242"/><path d="m133.496094 482.238281c-3.636719 0-6.121094-2.65625-7.238282-5.140625-1.558593-3.441406-1.21875-8.019531 3.054688-10.464844 1.519531-.867187 3.273438-1.324218 5.070312-1.324218 3.292969 0 6.449219 1.496094 8.234376 3.898437 1.25 1.667969 2.703124 5.085938-1.613282 9.210938-1.390625 1.320312-3.058594 2.75-4.921875 3.378906-.871093.292969-1.738281.441406-2.585937.441406zm0 0" fill="#d34242"/><path d="m117.0625 505.945312c-9.917969 0-19.824219-1.804687-29.453125-5.371093-2.6875-.988281-5.4375-2.171875-8.417969-3.613281l-4.027344-1.945313 4.136719-1.703125c18.890625-7.773438 33.832031-23.921875 39.96875-43.199219 2.09375-6.566406 2.5625-11.839843 1.472657-16.597656-2.441407-10.671875-12.488282-17.382813-21.992188-22.539063l-.125-.0625c-8.949219-4.855468-18.199219-9.871093-21.625-18.699218-3.027344-7.804688-.484375-16.460938 2.183594-22.351563 3.171875-7.023437 7.835937-13.527343 13.484375-18.804687 8.832031-8.246094 19.554687-13.382813 30.910156-18.824219 8.5-4.078125 17.289063-8.300781 25.101563-13.898437 9.429687-6.78125 19.570312-18.082032 26.460937-29.5l1.921875-3.179688 1.597656 3.355469c.738282 1.550781 1.476563 2.890625 2.257813 4.085937l.839843 1.285156-1.023437 1.140626c-9.011719 10.074218-17.171875 19.351562-24.953125 28.375-.359375.410156-.535156.957031-.484375 1.5.046875.550781.3125 1.050781.738281 1.390624l18.328125 14.835938c.984375.800781 2.335938 1.890625 4.121094 2.167969.292969.046875.582031.066406.871094.066406 3.03125 0 5.410156-2.523437 6.550781-3.734375 5.039062-5.402344 10.09375-10.773438 15.15625-16.136719l1.773438-1.882812 1.375 2.195312c6.167968 9.867188 18.597656 16.242188 31.667968 16.246094h.003906c1.621094 0 3.257813-.101563 4.863282-.292969 10.574218-1.265625 20.867187-6.136718 30.597656-14.472656l3.558594-3.046875-.261719 4.675781c-.871094 15.699219-10.082031 30.570313-23.46875 37.886719-5.308594 2.894531-11.003906 4.675781-17.027344 6.5625-5.617187 1.75-11.421875 3.5625-16.839843 6.367187-9.726563 5.050782-17.773438 13.226563-22.660157 23.015626-5.257812 10.519531-6.703125 22.277343-8.105469 33.652343-.972656 7.863281-1.972656 15.957031-4.207031 23.484375-4.691406 15.765625-15.191406 29.554688-28.808593 37.839844-10.449219 6.363281-23.058594 9.726562-36.460938 9.726562zm17.222656-44.683593c-2.484375 0-4.835937.625-6.988281 1.855469-5.519531 3.148437-7.472656 9.585937-4.75 15.65625 2.125 4.71875 6.210937 7.539062 10.925781 7.539062 1.292969 0 2.609375-.222656 3.917969-.660156 2.59375-.875 4.695313-2.664063 6.414063-4.300782 4.664062-4.445312 5.460937-10.03125 2.074218-14.574218-2.503906-3.351563-7.054687-5.515625-11.59375-5.515625zm21.835938-32.09375c-.183594 0-.375.003906-.5625.011719-5.203125.238281-10.347656 3.699218-12.796875 8.613281-2.089844 4.203125-1.796875 8.78125.800781 12.566406 1.601562 2.332031 4.3125 3.964844 7.644531 4.597656.9375.175781 1.90625.265625 2.867188.265625 4.351562 0 8.539062-1.808594 11.195312-4.839844 3.625-4.121093 4.261719-10.355468 1.511719-14.824218-2.582031-4.179688-6.265625-6.390625-10.660156-6.390625zm-51.546875-50.601563c-.578125 0-1.109375.238282-1.496094.664063-.753906.832031-.691406 2.125.140625 2.878906 7.691406 6.964844 15.808594 13.585937 24.117188 19.679687.441406.324219.894531.390626 1.199218.390626.648438 0 1.261719-.308594 1.644532-.832032.320312-.4375.449218-.976562.367187-1.515625-.085937-.535156-.367187-1-.800781-1.316406-8.214844-6.023437-16.222656-12.554687-23.804688-19.421875-.375-.339844-.859375-.527344-1.367187-.527344zm17.011719-20.144531c-.546876 0-1.054688.210937-1.4375.597656-.796876.804688-.789063 2.09375.003906 2.882813 7.753906 7.675781 15.921875 15.039062 24.269531 21.878906.371094.308594.8125.46875 1.28125.46875.613281 0 1.183594-.269531 1.570313-.742188.347656-.425781.507812-.953124.453124-1.492187-.054687-.539063-.3125-1.027344-.730468-1.371094-8.320313-6.824219-16.386719-14.101562-23.980469-21.636719-.386719-.378906-.890625-.585937-1.429687-.585937zm16.824218-19.183594c-.550781 0-1.066406.21875-1.449218.613281-.785157.808594-.769532 2.097657.035156 2.871094 8.839844 8.601563 17.929687 16.980469 27.011718 24.910156.367188.324219.839844.5 1.335938.5.589844 0 1.144531-.25 1.519531-.683593.367188-.417969.542969-.941407.507813-1.484375-.039063-.539063-.28125-1.03125-.691406-1.382813-9.136719-7.988281-18.171876-16.320312-26.851563-24.769531-.382813-.367188-.886719-.574219-1.417969-.574219zm0 0" fill="#f0f2fa"/><path d="m148.585938 288.011719c-.71875 0-1.433594-.066407-2.125-.195313-2.265626-.421875-4.0625-1.457031-5.050782-2.910156-.972656-1.425781-1.46875-2.960938-1.46875-4.566406 0-1.285156.324219-2.589844.957032-3.875 1.777343-3.570313 5.597656-6.175782 9.300781-6.359375.140625-.011719.273437-.015625.421875-.015625 2.03125 0 4.925781.773437 7.203125 4.460937 1.804687 2.933594 1.332031 7.234375-1.097657 10.007813-1.914062 2.164062-4.953124 3.453125-8.140624 3.453125zm0 0" fill="#f0f2fa"/><path d="m498.363281 39.339844c-1.359375-11.582032-13.582031-18.6875-24.117187-18.589844-.90625.007812-1.796875.0625-2.683594.140625-.851562-3.339844-1.738281-6.792969-3.371094-10.113281-2.4375-4.96875-6.167968-8.53125-10.5-10.03125-5.753906-1.992188-12.269531.125-15.15625 4.921875-2.542968 4.230469-2.1875 9.65625 1.050782 16.128906 1.195312 2.386719 2.546874 4.726563 4.011718 6.953125.175782.265625.398438.601562.660156.960938-.515624.300781-1.027343.601562-1.539062.90625-.945312.558593-1.898438 1.132812-2.855469 1.710937-1.285156-3.613281-2.9375-7.089844-4.964843-10.355469-1.664063-2.671875-4.050782-6-7.789063-7.984375-4.46875-2.371093-9.757813-1.949219-13.15625 1.054688-3.132813 2.769531-4.367187 7.410156-3.386719 12.730469 1.222656 6.621093 4.960938 12.574218 10.277344 16.601562-1.261719.832031-2.539062 1.679688-3.832031 2.542969-1.324219-2.925781-2.910157-5.734375-4.742188-8.375-3.738281-5.382813-7.960937-8.113281-12.546875-8.113281-.03125 0-.0625 0-.09375 0-5.324218.042968-10.261718 4.265624-11.480468 9.828124-.972657 4.441407.355468 9.503907 3.554687 13.53125 1.824219 2.296876 4.042969 4.0625 6.136719 5.421876-3.589844 2.867187-6.539063 6.148437-7.726563 10-1.550781 5.023437-.121093 9.644531 2.335938 13.742187-74.851563 63.253906-145.851563 132.039063-211.574219 204.953125-1.480469-2.699219-2.550781-5.636719-3.246094-8.695312-.039062-.296876-.105468-.589844-.210937-.871094-1.847657-9.1875-.21875-19.429688 4.878906-28.066406 6.902344-11.703126 19.457031-20.320313 34.445313-23.648438 1.613281-.355469 2.839843-1.660156 3.105468-3.289062.265625-1.628907-.488281-3.253907-1.902344-4.101563-16.421874-9.851563-38.484374-10.433594-57.582031-1.53125-16.425781 7.65625-30.835937 22.1875-40.566406 40.910156-2.972656 5.726563-5.578125 11.835938-8.09375 17.746094-6.816406 16.007813-13.253906 31.128906-26.617187 39.640625-9 5.734375-19.875 7.527344-31.390626 9.421875-13 2.140625-26.441406 4.355469-37.25 12.734375-9.902343 7.679688-16.753906 20.320312-19.285156 35.597656-6.328125 38.195313 14.714844 71.992188 27.824219 88.742188 16.472656 21.042968 36.019531 36.179687 56.519531 43.765625 10.378906 3.84375 21.109375 5.742187 31.546875 5.742187 14.316407-.003906 28.082031-3.574218 39.625-10.601562 14.882813-9.0625 26.351563-24.109375 31.460938-41.285156 2.390625-8.027344 3.421875-16.390626 4.417969-24.480469 1.402343-11.363281 2.722656-22.097657 7.511718-31.683594 4.324219-8.660156 11.4375-15.886719 20.03125-20.34375 4.910156-2.546875 10.222656-4.207031 15.847656-5.964844 6.054688-1.894531 12.316407-3.851562 18.136719-7.03125 18.324219-10.015625 29.316407-32.261719 26.136719-52.898437-.230469-1.523438-1.308594-2.777344-2.777344-3.234375-1.46875-.460938-3.070312-.042969-4.128906 1.070312-7.179688 7.5625-18.785156 16.945313-33.292969 18.6875-13.171875 1.578125-26.132812-4.402343-31.503906-14.550781-.074219-.140625-.171875-.261719-.257813-.386719 20.613282-21.757812 41.5-43.371093 62.628907-64.796875.042969-.039062.09375-.066406.136719-.109375.078124-.074219.132812-.160156.207031-.238281 48.28125-48.945312 97.777343-96.898438 147.957031-143.332031 1.972656 2.671875 2.769531 4.007812 3.074219 4.621093-.019531 1.25.542969 2.488282 1.621093 3.292969.726563.539063 1.570313.796875 2.40625.796875 1.230469 0 2.445313-.558594 3.234376-1.621094.003906-.003906.003906-.003906.003906-.007812 10.726562-14.402344 21.15625-29.3125 31.007812-44.3125.890625-1.359375 2.726563-4.152344 3.210938-7.394531 6.675781-.3125 13.820312-1.074219 20.351562-4.203125 7.71875-3.699219 15.472656-12.363282 14.265625-22.65625zm-44.03125-15.023438c-1.292969-1.960937-2.480469-4.023437-3.535156-6.128906-1.324219-2.640625-2.628906-6.238281-1.351563-8.367188.917969-1.523437 3.484376-2.191406 5.609376-1.457031 3.117187 1.078125 5.035156 4.199219 5.902343 5.964844 1.207031 2.460937 1.941407 5.230469 2.6875 8.15625-2.808593.871094-5.527343 2.011719-8.171875 3.308594-.210937-.1875-.5625-.59375-1.140625-1.476563zm-31.835937 1.996094c-.433594-2.363281-.121094-4.417969.796875-5.230469.839843-.742187 2.613281-.726562 4.035156.027344 1.589844.84375 3.042969 2.421875 4.71875 5.121094 2.027344 3.261719 3.617187 6.773437 4.769531 10.433593-1.5.941407-3.027344 1.910157-4.574218 2.898438-4.988282-2.636719-8.71875-7.703125-9.746094-13.25zm-20.476563 22.460938c-1.710937-2.148438-2.457031-4.691407-1.996093-6.789063.414062-1.878906 2.09375-3.480469 3.667968-3.492187h.023438c2.234375 0 4.457031 2.527343 5.933594 4.652343 1.773437 2.546875 3.257812 5.289063 4.460937 8.152344-.300781.171875-.597656.347656-.902344.523437-1.289062.75-2.628906 1.535157-3.976562 2.355469-3.371094-1.742187-5.667969-3.457031-7.210938-5.402343zm-51.523437 115.789062c-1.140625-1.15625-2.160156-2.695312-3.214844-4.304688l-.660156-1c-3.015625-4.53125-6.535156-8.707031-10.472656-12.460937 4.933593-4.523437 9.882812-9.019531 14.855468-13.492187l13.613282 15.726562c.332031.386719.730468.675781 1.15625.902344-5.101563 4.863281-10.195313 9.738281-15.277344 14.628906zm-41.347656 40.269531c-5.851563-5.410156-10.960938-11.558593-15.203126-18.3125 4.53125-4.382812 9.085938-8.738281 13.652344-13.082031 4.59375 6.234375 9.597656 12.261719 14.894532 17.917969.0625.066406.136718.113281.199218.171875-4.523437 4.425781-9.039062 8.859375-13.542968 13.304687zm-18.699219 18.566407-16.703125-17.050782c4.75-4.71875 9.523437-9.414062 14.316406-14.085937 4.367188 6.683593 9.507812 12.808593 15.347656 18.25-4.328125 4.285156-8.648437 8.582031-12.960937 12.886719zm37.929687-37.554688c-5.191406-5.542969-10.097656-11.453125-14.578125-17.570312-.101562-.140626-.222656-.253907-.339843-.378907 5.554687-5.242187 11.136718-10.449219 16.746093-15.628906 3.65625 3.433594 6.917969 7.277344 9.703125 11.460937l.625.953126c1.191406 1.816406 2.484375 3.769531 4.148438 5.476562-5.425782 5.242188-10.84375 10.492188-16.25 15.761719-.019532-.023438-.03125-.050781-.054688-.074219zm42.332032-42.085938-13.71875-15.855468c6.234374-5.566406 12.507812-11.085938 18.800781-16.578125l13.867187 16.011719c-6.132812 5.761718-12.257812 11.539062-18.367187 17.339843-.15625-.324219-.335938-.636719-.582031-.917969zm-121.003907 120.816407c-5.660156-5.449219-11.144531-11.175781-16.347656-17.074219 4.234375-4.4375 8.496094-8.847656 12.773437-13.246094l16.46875 17.179688c-4.308593 4.375-8.605468 8.753906-12.894531 13.140625zm-39.371093 40.816406c-4.230469-6.226563-9.554688-11.84375-15.554688-16.410156 3.644531-4.019531 7.292969-8.042969 10.96875-12.039063 5.339844 5.390625 10.945312 10.65625 16.671875 15.648438.027344.023437.0625.042968.09375.066406-4.070313 4.238281-8.132813 8.484375-12.179687 12.734375zm-15.574219 16.433594c-.066407-.105469-.117188-.21875-.191407-.320313-4.332031-5.804687-9.425781-10.976562-15.140624-15.410156 3.292968-3.710938 6.597656-7.414062 9.914062-11.105469 5.851562 4.34375 11.015625 9.800781 14.980469 15.890625.109375.167969.230469.324219.363281.46875-3.3125 3.488282-6.625 6.980469-9.925781 10.476563zm-20.679688-9.675781c5.304688 4.058593 10.027344 8.820312 14.027344 14.175781.371094.5.839844.875 1.351563 1.144531-2.65625 2.832031-5.324219 5.660156-7.972657 8.492188-1.28125 1.371093-1.878906 1.726562-2.125 1.816406-.300781-.148438-.890625-.621094-1.1875-.863282l-15.085937-12.207031c3.640625-4.203125 7.316406-8.382812 10.992187-12.558593zm53.636719-25.636719c-5.664062-4.9375-11.207031-10.144531-16.480469-15.480469 5.484375-5.914062 11.003907-11.800781 16.554688-17.65625 5.195312 5.859375 10.65625 11.550781 16.289062 16.976562-5.351562 5.5-10.691406 11.011719-16.011719 16.535157-.113281-.128907-.21875-.257813-.351562-.375zm-192.386719 171.011719c-28.636719-36.589844-28.71875-67.363282-26.21875-82.453126 2.199219-13.265624 7.980469-24.113281 16.273438-30.542968 9.191406-7.128906 21.058593-9.082032 33.617187-11.148438 11.808594-1.945312 24.023438-3.957031 34.414063-10.578125 15.472656-9.859375 22.707031-26.851562 29.703125-43.285156 2.457031-5.769531 5-11.738281 7.828125-17.183594 8.917969-17.15625 21.996093-30.410156 36.824219-37.324219 13.289062-6.199218 28.140624-7.1875 40.789062-3.050781-12.519531 4.972657-22.863281 13.464844-29.210938 24.21875-5.96875 10.117188-7.929687 22.117188-5.921874 33.054688-5.605469 11.980469-17.5625 26.480469-28.289063 34.179687-7.371094 5.289063-15.921875 9.390625-24.1875 13.359375-11.28125 5.414063-22.941406 11.011719-32.421875 19.859375-6.222656 5.808594-11.367188 12.980469-14.875 20.738282-3.144531 6.953124-6.09375 17.289062-2.308594 27.039062 4.234375 10.902344 14.933594 16.710938 24.378906 21.832031l.128907.070313c8.734375 4.742187 17.082031 10.273437 18.976562 18.5625.835938 3.648437.410157 7.90625-1.339843 13.402344-6.230469 19.550781-22.988282 35.890624-42.691407 41.617187-.066406.019531-.125.054687-.191406.078125-12.636719-7.835938-24.605469-18.816406-35.277344-32.445312zm205.652344-115.28125c12.929687-1.554688 23.695313-8.125 31.664063-14.945313-.824219 14.746094-9.441407 29.140625-22.433594 36.242187-5.121094 2.796876-10.734375 4.550782-16.675782 6.40625-5.710937 1.785157-11.613281 3.632813-17.152343 6.503907-10.097657 5.238281-18.457031 13.726562-23.539063 23.902343-5.402344 10.824219-6.875 22.757813-8.296875 34.296876-.957031 7.761718-1.945312 15.785156-4.140625 23.167968-4.550781 15.285156-14.730468 28.664063-27.929687 36.699219-17.867188 10.878906-41.859375 12.445313-64.175781 4.183594-2.765626-1.023438-5.511719-2.214844-8.238282-3.53125 19.3125-7.957031 34.730469-24.441407 41.105469-44.449219 2.207031-6.925781 2.6875-12.53125 1.519531-17.648438-2.617187-11.441406-13.09375-18.472656-22.992187-23.847656l-.128907-.070312c-8.625-4.679688-17.546874-9.519532-20.710937-17.664063-2.769531-7.140625-.363281-15.253906 2.144531-20.800781 3.070313-6.792969 7.578125-13.078125 13.03125-18.167969 8.574219-8.003906 19.179688-13.09375 30.40625-18.480469 8.582032-4.117187 17.453125-8.375 25.398438-14.078124 9.785156-7.023438 20.171875-18.757813 27.011718-30.089844.710938 1.488281 1.496094 2.9375 2.390626 4.320312-8.410157 9.40625-16.746094 18.863282-24.976563 28.398438-.714844.824218-1.0625 1.90625-.964844 2.992187.097657 1.085938.632813 2.089844 1.480469 2.773438l18.324219 14.828125c1.097656.890625 2.757812 2.234375 5.0625 2.585937.40625.066407.796875.09375 1.183593.09375 3.921876 0 6.753907-3.03125 8.027344-4.394531 5.027344-5.378906 10.070313-10.746094 15.132813-16.105469 7.421875 11.863281 22.875 18.75 38.472656 16.878907zm27.277344-96.554688-16.5-17.210938c5.394531-5.507812 10.820312-10.988281 16.269531-16.441406l16.714844 17.0625c-5.511719 5.515625-11.007813 11.046875-16.484375 16.589844zm127.285156-123.871094-13.667969-15.773437c6.445313-5.582031 12.917969-11.132813 19.421875-16.632813.785157.902344 1.5625 1.761719 2.304688 2.578125.800781.878907 1.558593 1.71875 2.234375 2.507813l.570312.667968c3.195313 3.714844 5.742188 6.765626 7.792969 9.289063-6.230469 5.761719-12.445313 11.554687-18.65625 17.363281zm85.070313-67.09375c-6.445313 3.085938-14.078126 3.339844-21.460938 3.582032-1.378906.046874-2.640625.796874-3.339844 1.988281-.703125 1.191406-.742187 2.65625-.109375 3.886719.222657.4375.273438 1.664062-1.910156 4.988281-8.5625 13.039062-17.570313 26.007812-26.824219 38.632812-1.097656-1.554687-2.464844-3.347656-4.105468-5.4375-3.992188-5.074219-8.605469-10.4375-10.339844-12.457031l-.550782-.640625c-.722656-.847656-1.539062-1.75-2.398437-2.695313-4.117187-4.535156-9.242187-10.179687-7.757813-14.984374 1.425782-4.625 9.53125-9.351563 15.449219-12.796876 2.085938-1.21875 4.050781-2.363281 5.664063-3.449218 10.207031-6.882813 19.332031-12.703125 27.902344-17.789063 7.390624-4.386719 15.289062-8.675781 23.472656-8.738281h.121094c7.066406 0 15.117187 4.582031 15.929687 11.46875.710937 6.078125-4.363281 11.863281-9.742187 14.441406zm0 0"/><path d="m423.332031 63.636719c-2.324219 1.085937-4.585937 2.34375-6.730469 3.75-1.859374 1.222656-2.382812 3.722656-1.160156 5.582031.773438 1.179688 2.0625 1.820312 3.375 1.820312.757813 0 1.527344-.214843 2.207032-.660156 1.824218-1.195312 3.746093-2.265625 5.714843-3.183594 2.019531-.941406 2.890625-3.339843 1.953125-5.359374-.941406-2.015626-3.339844-2.890626-5.359375-1.949219zm0 0"/><path d="m440.535156 50.464844c-1.839844 1.222656-3.75 2.394531-5.671875 3.484375-1.9375 1.097656-2.617187 3.554687-1.523437 5.492187.742187 1.3125 2.109375 2.046875 3.515625 2.046875.671875 0 1.351562-.167969 1.980469-.523437 2.085937-1.183594 4.160156-2.457032 6.15625-3.78125 1.855468-1.230469 2.363281-3.734375 1.128906-5.589844-1.226563-1.851562-3.730469-2.359375-5.585938-1.128906zm0 0"/><path d="m465.285156 36.203125-6.152344 3.183594c-1.976562 1.023437-2.75 3.457031-1.726562 5.433593.71875 1.386719 2.125 2.179688 3.585938 2.179688.621093 0 1.257812-.144531 1.847656-.453125l6.152344-3.183594c1.976562-1.019531 2.75-3.453125 1.726562-5.429687-1.023438-1.980469-3.457031-2.753906-5.433594-1.730469zm0 0"/><path d="m72.691406 466.875c6.570313-.003906 13.375-3.019531 16.210938-9.488281 2.335937-5.328125 1.496094-11.878907-2.363282-18.453125-4.722656-8.050782-15.234374-17.207032-25.414062-18.324219-5.714844-.625-10.804688 1.277344-14.730469 5.503906-3.722656 4.007813-4.921875 9.167969-3.464843 14.925781 2.683593 10.59375 14.511718 21.832032 23.292968 24.800782 2.019532.683594 4.230469 1.035156 6.46875 1.035156zm-21.945312-27.816406c-.777344-3.058594-.265625-5.5 1.550781-7.457032 1.898437-2.039062 4.109375-3.042968 6.734375-3.042968.398438 0 .800781.023437 1.214844.066406 7.195312.789062 15.636718 8.082031 19.335937 14.390625 1.175781 1.996094 3.710938 7.082031 1.9375 11.132813-1.882812 4.289062-8.210937 5.578124-12.714843 4.054687-5.816407-1.96875-15.964844-10.871094-18.058594-19.144531zm0 0"/><path d="m126.300781 461.378906c-6.445312 3.683594-8.734375 11.171875-5.574219 18.210938 2.476563 5.515625 7.371094 8.71875 12.742188 8.71875 1.492188 0 3.023438-.25 4.550781-.761719 2.984375-1.003906 5.296875-2.960937 7.160157-4.742187 5.375-5.125 6.277343-11.882813 2.300781-17.222657-4.101563-5.5-13.363281-8.675781-21.179688-4.203125zm13.316407 15.589844c-1.226563 1.171875-2.679688 2.433594-4.171876 2.9375-3.675781 1.234375-6.265624-1.179688-7.363281-3.621094-1.09375-2.4375-1.171875-5.972656 2.21875-7.910156 1.300781-.742188 2.707031-1.070312 4.078125-1.070312 2.703125 0 5.273438 1.265624 6.636719 3.097656 1.515625 2.03125 1.042969 4.238281-1.398437 6.566406zm0 0"/><path d="m155.46875 427.183594c-5.910156.269531-11.738281 4.175781-14.496094 9.71875-2.425781 4.871094-2.082031 10.1875.941406 14.589844 1.902344 2.773437 5.074219 4.699218 8.921876 5.425781 1.074218.203125 2.15625.300781 3.234374.300781 4.867188 0 9.621094-2.003906 12.703126-5.511719 4.191406-4.769531 4.910156-11.996093 1.710937-17.191406-3.066406-4.96875-7.675781-7.570313-13.015625-7.332031zm5.25 19.199218c-1.894531 2.152344-5.261719 3.207032-8.386719 2.613282-1.714843-.324219-3.089843-1.078125-3.769531-2.070313-1.710938-2.488281-1.148438-4.871093-.371094-6.429687 1.449219-2.910156 4.664063-5.121094 7.644532-5.257813.09375-.003906.191406-.003906.285156-.003906 2.210937 0 4.058594 1.179687 5.496094 3.511719 1.34375 2.179687.949218 5.53125-.898438 7.636718zm0 0"/><path d="m145.335938 293.777344c1.074218.203125 2.15625.300781 3.234374.300781 4.867188 0 9.621094-2.007813 12.703126-5.515625 4.191406-4.765625 4.910156-11.996094 1.710937-17.1875-3.0625-4.96875-7.679687-7.574219-13.015625-7.332031-5.910156.269531-11.734375 4.175781-14.496094 9.71875-2.421875 4.871093-2.078125 10.1875.941406 14.589843 1.90625 2.773438 5.074219 4.699219 8.921876 5.425782zm-2.644532-16.421875c1.449219-2.914063 4.664063-5.125 7.640625-5.257813.097657-.003906.195313-.007812.289063-.007812 2.210937 0 4.058594 1.179687 5.496094 3.511718 1.34375 2.179688.949218 5.535157-.898438 7.636719-1.894531 2.15625-5.269531 3.203125-8.386719 2.617188-1.714843-.324219-3.089843-1.078125-3.769531-2.070313-1.714844-2.492187-1.148438-4.871094-.371094-6.429687zm0 0"/><path d="m162.6875 369.140625c.765625.667969 1.710938.992187 2.652344.992187 1.121094 0 2.238281-.464843 3.035156-1.378906 1.464844-1.675781 1.292969-4.222656-.382812-5.6875-9.105469-7.957031-18.113282-16.261718-26.773438-24.683594-1.59375-1.550781-4.148438-1.519531-5.699219.078126-1.550781 1.597656-1.515625 4.148437.078125 5.703124 8.761719 8.519532 17.878906 16.925782 27.089844 24.976563zm0 0"/><path d="m143.152344 385.335938c.75.613281 1.652344.914062 2.554687.914062 1.164063 0 2.320313-.503906 3.117188-1.476562 1.414062-1.722657 1.164062-4.261719-.558594-5.671876-8.246094-6.765624-16.269531-14-23.84375-21.511718-1.582031-1.566406-4.132813-1.554688-5.703125.027344-1.566406 1.578124-1.554688 4.132812.027344 5.699218 7.753906 7.6875 15.964844 15.097656 24.40625 22.019532zm0 0"/><path d="m128.535156 404.183594c1.242188 0 2.464844-.574219 3.253906-1.648438 1.320313-1.796875.929688-4.320312-.867187-5.636718-8.167969-5.988282-16.121094-12.476563-23.640625-19.285157-1.648438-1.492187-4.199219-1.367187-5.691406.28125-1.496094 1.652344-1.371094 4.199219.28125 5.695313 7.71875 6.992187 15.890625 13.660156 24.285156 19.8125.71875.527344 1.550781.78125 2.378906.78125zm0 0"/></svg>