<svg height="512pt" viewBox="0 -20 512.00225 512" width="512pt" xmlns="http://www.w3.org/2000/svg"><path d="m261.015625 410.042969c-9.972656 0-20-1.042969-29.804687-3.101563-2.03125-.433594-3.148438-1.070312-3.632813-1.414062l-1.492187-1.054688.914062-1.582031c.207031-.355469.53125-.8125.695312-1.039063 5.015626-6.894531 10.539063-13.535156 16.433594-19.761718l1.125-1.191406 1.390625.871093c.503907.316407.898438.53125 1.269531.703125 2.984376 1.402344 6.171876 1.625 8.617188 1.660156.292969.011719.554688.011719.8125.011719h.058594c5.859375 0 11.617187-1.03125 17.113281-3.066406.3125-.113281.742187-.273437 1.226563-.5l1.03125-.476563.9375.640626c7.496093 5.132812 12.617187 18.511718 14.296874 22.90625l.699219 1.820312-1.804687.746094c-3.6875 1.519531-7.714844 2.175781-11.519532 2.664062-6.082031.773438-12.261718 1.164063-18.367187 1.164063zm0 0" fill="#939baa"/><path d="m110.890625 426.066406c-1.890625 0-3.777344-.21875-5.613281-.644531-2.742188-.648437-6.488282-2.035156-8.785156-4.992187-2.144532-2.726563-2.9375-6.859376-2.113282-11.050782 1.808594-9.195312 11.851563-15.179687 20.515625-15.652344.355469-.019531.734375-.03125 1.128907-.03125 7.285156 0 12.417968 3.605469 14.457031 10.152344 1.867187 5.988282-.613281 13.421875-5.902344 17.683594-3.613281 2.921875-8.476563 4.535156-13.6875 4.535156zm0 0" fill="#939baa"/><path d="m81.273438 249.054688 1.984374-.171876c3.820313-.335937 7.6875-.785156 11.496094-1.339843l2.089844-.300781.191406 2.101562c.210938 2.371094.316406 4.683594.304688 6.871094l-.007813 1.910156-1.90625.078125c-1.90625.082031-3.78125.160156-5.628906.25-1.898437.097656-3.816406.207031-5.730469.347656l-1.976562.144531zm0 0" fill="#939baa"/><path d="m78.085938 401.074219c-.75 0-1.378907-.210938-1.871094-.628907-1.113282-.953124-1.539063-2.726562-1.472656-6.132812l.800781-59.289062 2.25.316406c2.316406.332031 4.617187.617187 6.894531.898437l1.78125.214844-.027344 1.796875c-.214844 16.027344-.460937 34.191406-1.875 51.921875-.273437 3.445313-.640625 6.484375-2.320312 8.738281-.855469 1.148438-2.320313 1.992188-3.734375 2.140625-.132813.015625-.273438.023438-.425781.023438zm0 0" fill="#939baa"/><path d="m428.496094 466.203125c-13.09375 0-25.605469-1.371094-35.042969-2.566406-12.980469-1.628907-26.660156-3.761719-38.65625-10.203125-6.960937-3.734375-11.453125-8.210938-13.347656-13.304688-1.34375-3.625-1.445313-7.765625-1.4375-11.703125l.007812-3.707031 3.097657 2.046875c8.117187 5.371094 17.378906 8.28125 26.179687 10.625 24.355469 6.496094 49.5 9.792969 74.726563 9.792969 4.179687 0 8.414062-.089844 12.59375-.269532 7.621093-.328124 16.425781-.980468 24.511718-4.523437l3.628906-1.589844-.875 3.863281c-.222656.996094-.472656 1.992188-.738281 2.988282-.714843 2.585937-1.699219 5.496094-3.644531 7.53125-1.726562 1.832031-4.160156 2.976562-7.285156 4.125-12.59375 4.640625-26.894532 6.894531-43.71875 6.894531zm0 0" fill="#d34242"/><path d="m444.015625 443.121094c-10.210937 0-20.527344-.554688-30.660156-1.648438l-2.46875-.269531.839843-2.5 28.253907-118.175781 2.285156 6.191406c4.59375 12.4375 8.234375 25.175781 11.757813 37.496094l.050781.175781c2.816406 9.8125 5.726562 19.957031 9.054687 29.804687 4.804688 14.230469 10.632813 28.28125 17.316406 41.769532l.929688 1.878906-1.921875.839844c-7.449219 3.265625-15.785156 3.863281-23.015625 4.167968-4.121094.179688-8.300781.269532-12.421875.269532zm0 0" fill="#d34242"/><path d="m405.324219 440.476562c-11.757813-1.601562-23.527344-3.957031-34.988281-7.011718-8.722657-2.328125-17.859376-5.210938-25.601563-10.5l-1.417969-.96875.742188-1.546875c13.835937-28.792969 26.933594-58.304688 38.933594-87.710938l3.847656.644531c2.152344 39.144532 8.898437 73.296876 20.625 104.40625l1.183594 3.140626zm0 0" fill="#d34242"/><path d="m279.300781 155.492188c-7.503906-1.699219-15.230469-2.5625-22.964843-2.5625-7.722657 0-15.4375.859374-22.933594 2.554687l-2.472656.558594.03125-2.535157c.050781-3.820312.050781-7.703124 0-11.539062l-.019532-1.378906 1.28125-.507813c7.859375-3.117187 16.191406-4.699219 24.769532-4.699219 7.835937 0 15.476562 1.332032 22.703124 3.960938.046876.011719.101563.019531.15625.03125l1.628907.289062.019531 1.65625c.050781 4.027344.128906 8.125.238281 12.167969l.070313 2.574219zm0 0" fill="#d34242"/><path d="m424.484375 91.777344c-.8125 0-1.636719-.027344-2.449219-.078125-4.535156-.277344-7.933594-1.472657-10.089844-3.542969-2.589843-2.492188-3.84375-6.828125-3.445312-11.890625.46875-5.988281 3.160156-12.117187 7.578125-17.246094 4.4375-5.144531 10.089844-8.695312 15.914063-10.007812 1.296874-.289063 2.597656-.4375 3.871093-.4375 4.058594 0 7.804688 1.46875 10.839844 4.246093 4.597656 4.195313 6.917969 10.8125 6.050781 17.269532-.722656 5.484375-2.898437 10.359375-6.128906 13.71875-2.84375 2.953125-6.796875 5.15625-11.753906 6.539062-3.386719.949219-6.882813 1.429688-10.386719 1.429688zm0 0" fill="#f9d889"/><path d="m81.3125 198.425781c-2.371094 0-4.773438-.105469-7.140625-.320312-6.058594-.546875-10.625-1.726563-14.375-3.714844l-1.738281-.921875.890625-1.75c.527343-1.039062.691406-2.136719.824219-3.023438l.054687-.328124c1.714844-10.871094 11.664063-20.078126 22.644531-20.945313.675782-.054687 1.351563-.082031 1.996094-.082031 8.785156 0 13.660156 4.882812 19.304688 10.539062 2.582031 2.589844 5.222656 5.238282 8.445312 7.617188l1.503906 1.046875-.535156 1.492187c-1.054688 3.378906-4.59375 5.851563-10.816406 7.558594-6.890625 1.878906-13.976563 2.832031-21.058594 2.832031zm0 0" fill="#f9d889"/><g fill="#bfc7d8"><path d="m413.988281 309.15625c-24.289062 0-48.175781-3.90625-71.007812-11.605469l-1.4375-.488281.082031-1.519531c.265625-4.785157.527344-8.734375.824219-12.429688l.21875-2.707031 2.519531 1.011719c21.085938 8.464843 44.640625 12.9375 68.113281 12.9375 25.390625 0 50.667969-5.1875 73.101563-14.992188l2.269531-.996093.492187 2.429687c.761719 3.785156 1.117188 8.253906 1.117188 14.078125v2.761719l-2.515625-.671875c-.175781-.046875-.351563-.070313-.535156-.070313-.222657 0-.445313.039063-.664063.109375-23.28125 8.0625-47.703125 12.152344-72.574218 12.152344zm0 0"/><path d="m354.03125 152.839844c-12.351562 0-24.625-1.640625-36.136719-3.316406-11.878906-1.734376-22.378906-3.6875-30.621093-10.078126-.113282-.089843-.265626-.171874-.457032-.242187l-1.273437-.488281-.011719-1.367188c-.03125-4.714844-.035156-8.855468-.011719-12.667968l.023438-3.382813 2.953125 1.648437c15.820312 8.835938 33.976562 13.507813 52.496094 13.507813 9.171874 0 18.183593-1.164063 26.785156-3.453125.265625-.074219.519531-.210938.738281-.390625l1.230469-1.03125 1.273437.976563c5.625 4.332031 12.191407 7.664062 19.503907 9.902343l5.269531 1.613281-5.074219 2.144532c-8.976562 3.789062-19.371094 5.976562-30.898438 6.496094-1.871093.085937-3.820312.128906-5.789062.128906zm0 0"/><path d="m258.207031 334.625c-.394531 0-.78125-.011719-1.167969-.035156-4.660156-.285156-8.890624-2.410156-11.304687-5.675782-2.828125-3.808593-3.320313-8.472656-1.390625-13.128906 2.660156-6.429687 9.410156-11.824218 16.050781-12.820312.511719-.074219 1.035157-.113282 1.5625-.113282 4.792969 0 9.894531 3.070313 13.316407 8.015626 3.476562 4.996093 4.183593 10.46875 1.890624 14.640624-1.234374 2.230469-3.5 4.164063-6.933593 5.917969-4.097657 2.09375-8.257813 3.199219-12.023438 3.199219zm0 0"/><path d="m256.605469 380.074219c-3.050781-.058594-5.191407-.449219-6.941407-1.269531-2.046874-.960938-3.539062-2.648438-3.894531-4.40625-.253906-1.238282-.027343-2.6875.246094-4.1875 1.835937-10.21875 4.5625-20.414063 8.09375-30.300782l.519531-1.457031 2.207032.199219c.429687.023437.933593.042968 1.433593.042968 1.25 0 2.597657-.113281 3.996094-.335937l2.316406-.367187v1.84375c5.625 10.367187 9.335938 21.558593 11.027344 33.273437.113281.832031.152344 1.367187.140625 1.75l-.039062 1.042969-.875.5625c-.398438.257812-.964844.523437-1.730469.804687-4.960938 1.839844-10.386719 2.8125-15.6875 2.8125-.269531 0-.542969-.003906-.8125-.007812zm0 0"/><path d="m263.011719 131.59375c-2.042969-.171875-4.113281-.257812-6.15625-.257812-2.078125 0-4.175781.089843-6.238281.269531l-1.761719.152343-.367188-1.726562c-.910156-4.242188-1.769531-8.777344-1.90625-13.1875-.058593-1.804688 0-4.105469.96875-5.855469 1.28125-2.296875 4.121094-3.609375 7.800781-3.609375 1.289063 0 2.621094.167969 3.855469.488282 1.796875.464843 3.035157 1.089843 3.773438 1.910156.972656 1.089844 1.34375 2.761718 1.609375 4.9375.605468 4.914062.808594 9.957031.589844 14.976562l-.085938 2.082032zm0 0"/><path d="m167.414062 149.902344c-16.242187-.050782-34.875-.832032-50.410156-9.542969l-.96875-.542969-.730468-16.089844 3.199218 1.925782c8.644532 5.195312 18.597656 7.144531 26.304688 8.261718 7.5625 1.101563 15.175781 1.660157 22.625 1.660157 20.664062 0 39.433594-4.277344 55.792968-12.714844l2.582032-1.332031.320312 2.886718c.074219.652344.125 1.3125.175782 1.972657.230468 3.492187.402343 7.195312.507812 11.035156l.050781 1.90625-1.902343.140625c-.28125.023438-.5625.101562-.8125.234375-16.871094 8.992187-37.203126 10.207031-54.863282 10.207031zm0 0"/><path d="m121.828125 308.128906c-7.636719 0-15.828125-.394531-25.785156-1.242187-17.949219-1.535157-38.480469-4.089844-55.003907-15.035157l-.917968-.605468.019531-1.101563c.082031-4.152343.300781-8.300781.648437-12.332031l.332032-3.835938 2.945312 2.476563c5.628906 4.722656 12.425782 7.511719 18.324219 9.617187 17.730469 6.332032 36.289063 9.542969 55.167969 9.542969 10.996094 0 22.003906-1.105469 32.722656-3.289062 7.332031-1.488281 18.144531-4.179688 27.328125-10.3125l2.078125-1.390625.898438 2.332031c1.152343 2.992187 1.917968 6.375 2.34375 10.347656l.25 2.339844-2.464844-.132813c-.339844 0-.664063.082032-.960938.242188-15.273437 8.328125-34.222656 12.378906-57.925781 12.378906zm0 0"/><path d="m166 462.246094c-1.625 0-3.351562-.515625-5-1.492188-2.417969-1.421875-4.445312-3.625-6.410156-5.753906l-27.683594-30.019531 1.445312-1.355469c1.15625-1.085938 2.214844-2.34375 3.148438-3.734375l1.277344-1.910156 1.714844 1.53125c12.046874 10.746093 23.625 22.191406 34.417968 34.023437 1.078125 1.179688 2.066406 2.339844 2.347656 3.542969.484376 2-1.25 4.148437-3.109374 4.816406-.671876.234375-1.390626.351563-2.148438.351563zm0 0"/><path d="m106.3125 338.261719 2.109375.113281c3.421875.191406 6.773437.3125 9.964844.371094l2.105469.035156-.144532 2.101562c-1.070312 15.378907-1.554687 31.113282-1.445312 46.757813l.015625 2.066406-2.066407-.054687c-.300781-.007813-.601562-.011719-.90625-.011719-.421874 0-.84375.007813-1.273437.03125-1.960937.105469-3.875.414063-5.839844.941406l-2.519531.679688zm0 0"/><path d="m44.863281 459.621094c-2.730469-.070313-5.851562-2.109375-5.890625-4.738282-.046875-2.816406 3.007813-5.097656 6.003906-6.960937l46.054688-28.753906 1.023438 1.847656c.441406.800781.832031 1.410156 1.234374 1.914063.394532.511718.878907 1.03125 1.53125 1.65625l1.667969 1.585937-1.804687 1.429687c-13.234375 10.492188-26.269532 20.578126-40.160156 28.621094-3.09375 1.796875-6.132813 3.40625-9.304688 3.40625-.121094 0-.238281-.003906-.355469-.007812zm0 0"/></g><path d="m413.335938 290.296875c-23.453126 0-46.929688-4.554687-67.902344-13.171875l-2.171875-.894531 1.226562-2c.175781-.289063.449219-.71875.800781-1.132813 1.75-2.054687 4.605469-3.175781 7.144532-4.0625 20.503906-7.179687 42.574218-8.171875 63.371094-8.171875 3.808593 0 7.617187.035157 11.402343.070313l2.132813.019531c2.023437.023437 4.058594.03125 6.101562.035156l2.109375.007813c11.023438.007812 22.429688.019531 33.226563 1.734375 7.359375 1.164062 12.4375 4.410156 15.519531 9.917969l1.265625 2.253906-2.5.65625c-.085938.023437-.175781.039062-.257812.074218-21.945313 9.59375-46.65625 14.664063-71.46875 14.664063zm0 0" fill="#f0f2fa"/><path d="m340.941406 132.390625c-17.648437 0-34.945312-4.40625-50.027344-12.746094l-4.277343-2.367187 4.710937-1.3125c19.714844-5.484375 40.09375-8.292969 60.570313-8.339844.148437 0 .285156-.015625.410156-.042969l1.855469-.414062.507812 1.832031c.671875 2.421875 1.527344 4.746094 2.550782 6.910156 1.769531 3.753906 4.207031 7.34375 7.246093 10.664063l2.316407 2.53125-3.34375.765625c-7.285157 1.671875-14.863282 2.519531-22.519532 2.519531zm0 0" fill="#f0f2fa"/><path d="m241.714844 360.515625c-23.066406 0-45.691406-12.820313-57.636719-32.660156l-.742187-1.238281.9375-1.097657c.074218-.085937.148437-.167969.21875-.265625 1.070312-1.542968 1.296874-3.375 1.460937-4.714844 1.871094-15.945312 5.34375-45.519531-15.867187-53.9375-1.355469-.53125-2.8125-1.066406-4.332032-1.585937l-1.417968-.488281.070312-1.496094c.433594-9.613281 3.40625-18.964844 8.59375-27.039062 2.167969-3.382813 4.234375-5.640626 6.5-7.101563.230469-.152344.433594-.351563.585938-.59375l.535156-.839844.992187-.078125c16.554688-1.3125 32.769531-6.066406 46.894531-13.753906.640626-.34375 1.039063-1 1.054688-1.722656l.246094-9.550782 1.375-.421874c10.382812-3.199219 21.175781-4.824219 32.070312-4.824219 6.527344 0 13.078125.589843 19.476563 1.757812l1.503906.273438.132813 1.523437.199218 2.46875c.183594 1.996094.402344 4.449219 1.738282 6.566406 1.414062 2.238282 3.625 3.527344 6.507812 4.769532 13.789062 5.929687 28.78125 8.261718 42.953125 10.144531 2.71875.355469 5.480469.714844 8.28125 1.046875l2.015625.234375-.269531 2.015625c-.042969.324219-.046875.957031.414062 1.523438 7.277344 9.039062 11.460938 20.417968 11.785157 32.046874l.042968 1.535157-1.476562.4375c-2.144532.632812-3.882813 1.1875-5.460938 1.746093-3.285156 1.148438-6.632812 2.585938-8.921875 5.277344-2.871093 3.402344-3.4375 7.910156-3.769531 12.230469-1.117188 14.050781-1.765625 29.542969-2.035156 48.765625l-.011719.757812-.621094.683594c-5.492187 8.296875-16.371093 16.613282-27.046875 20.667969-8.398437 3.1875-17.714844 4.980469-30.207031 5.816406l-1.601563.105469-.453124-1.539062c-1.910157-6.5-4.515626-12.902344-7.75-19.03125l-1.011719-1.925782 2.003906-.847656c.882813-.375 1.671875-.742188 2.410156-1.125 4.175781-2.132812 6.992188-4.605469 8.628907-7.5625 3.070312-5.546875 2.285156-12.621094-2.101563-18.925781-4.175781-6.019531-10.554687-9.757813-16.648437-9.757813-.730469 0-1.457032.054688-2.164063.160156-8.089844 1.203126-15.992187 7.492188-19.21875 15.296876-2.492187 6.027343-1.820313 12.097656 1.890625 17.09375 1.613281 2.175781 3.890625 4.007812 6.585938 5.300781l1.621093.773437-.597656 1.695313c-2.292969 6.492187-4.265625 13.175781-5.863281 19.867187l-.363282 1.523438zm0 0" fill="#f0f2fa"/><path d="m167.417969 131.507812c-7.207031 0-14.617188-.542968-22.023438-1.613281-7.613281-1.105469-17.398437-3.035156-25.550781-8.199219l-3.871094-2.453124 4.425782-1.171876c14.246093-3.773437 35.867187-8.789062 59.109374-8.789062 13.738282 0 26.558594 1.796875 38.113282 5.34375.945312.289062 2.183594.6875 3.320312 1.21875l3.695313 1.734375-3.632813 1.855469c-15.683594 8.011718-33.710937 12.074218-53.585937 12.074218zm0 0" fill="#f0f2fa"/><path d="m117.554688 291.554688c-18.386719 0-36.488282-3.132813-53.804688-9.308594-6.351562-2.273438-13.558594-5.300782-18.890625-10.546875l-2.644531-2.601563 3.625-.777344c14.503906-3.125 29.363281-5.082031 44.160156-5.816406 8.085938-.398437 14.859375-.582031 21.324219-.582031 24.175781 0 42.902343 2.769531 57.253906 8.460937 2.855469 1.128907 5.347656 2.820313 7.402344 5.027344l1.59375 1.703125-1.929688 1.3125c-8.628906 5.871094-19.070312 8.46875-26.175781 9.917969-10.480469 2.128906-21.21875 3.210938-31.914062 3.210938zm0 0" fill="#f0f2fa"/><path d="m412.464844 141.574219c-5.625 0-11.148438-.613281-16.417969-1.820313-16.230469-3.738281-29.359375-13.296875-35.125-25.570312-5.40625-11.496094-4.230469-23.90625-2.289063-32.292969 5.34375-23.042969 22.632813-44.613281 48.675782-60.738281 9.8125-6.082032 18.964844-10.3125 27.976562-12.929688 4.820313-1.402344 9.925782-2.117187 15.171875-2.117187 8.90625 0 17.90625 2.070312 26.035157 5.984375 13.582031 6.53125 23.257812 17.363281 27.246093 30.5 3.578125 11.816406 2.78125 25.421875-2.25 38.320312-4.414062 11.320313-11.980469 22.144532-22.492187 32.179688-18.976563 18.105468-43.226563 28.484375-66.53125 28.484375zm23.488281-97.074219c-1.59375 0-3.230469.1875-4.859375.554688-13.835938 3.117187-25.542969 16.6875-26.648438 30.894531-.054687.742187-.082031 1.460937-.082031 2.195312 0 5.457031 1.644531 9.933594 4.757813 12.941407 2.867187 2.75 7.125 4.320312 12.65625 4.671874.898437.058594 1.804687.085938 2.695312.085938 3.886719 0 7.753906-.53125 11.488282-1.578125 5.671874-1.59375 10.242187-4.164063 13.589843-7.640625 4.894531-5.089844 6.636719-11.515625 7.238281-16.007812 1.023438-7.757813-1.789062-15.726563-7.347656-20.796876-3.800781-3.480468-8.46875-5.320312-13.488281-5.320312zm0 0" fill="#ffbf48"/><path d="m58.308594 229.394531c-4.324219 0-8.699219-.109375-13.007813-.324219-10.367187-.519531-22.394531-1.730468-32.960937-6.785156l-2.929688-1.398437 2.566406-1.988281c12.585938-9.71875 26.550782-17.5625 41.507813-23.3125l1.652344-.636719.832031 1.5625c.191406.363281.449219.644531.769531.832031 4.429688 2.625 9.855469 4.152344 17.074219 4.808594 2.457031.21875 4.992188.328125 7.527344.328125 7.433594 0 14.867187-.996094 22.09375-2.96875 7.101562-1.941407 11.578125-5.109375 13.3125-9.417969l.695312-1.726562 1.773438.570312c2.109375.683594 4.195312 1.175781 6.503906 1.703125 1.304688.292969 2.546875.582031 3.757812.894531 7.914063 2.085938 15.730469 4.789063 23.230469 8.03125 1.785157.765625 3.839844 1.71875 5.519531 2.9375l2.363282 1.71875-2.457032 1.582032c-15.007812 9.667968-33.695312 16.242187-57.125 20.101562-14.066406 2.3125-28.429687 3.488281-42.699218 3.488281zm0 0" fill="#ffbf48"/><path d="m66.023438 245.578125c-5.476563 0-11.03125-.234375-16.507813-.691406-7.269531-.601563-16.710937-1.765625-25.269531-5.46875-5.265625-2.285157-9.722656-5.339844-13.25-9.082031l2.222656-3.21875c10.621094 4.417968 22.074219 5.515624 31.875 6.007812 4.390625.21875 8.847656.328125 13.246094.328125 14.515625 0 29.089844-1.191406 43.324218-3.542969 17.910157-2.945312 32.964844-7.410156 46.023438-13.652344l2.324219 3.171876c-4.246094 4.546874-8.34375 8.101562-12.515625 10.871093-7.246094 4.78125-15.578125 7.304688-22.769532 9.140625-15.925781 4.070313-32.308593 6.136719-48.703124 6.136719zm0 0" fill="#ffbf48"/><path d="m482.128906 430.15625c-5.785156-12.082031-10.882812-24.621094-15.152344-37.261719-3.308593-9.800781-6.214843-19.945312-9.023437-29.753906-4.683594-16.316406-9.515625-33.144531-16.335937-49.039063l-1.046876-2.433593 2.628907-.335938c15.132812-1.953125 30.066406-5.445312 44.382812-10.378906l2.679688-.921875-.027344 2.832031c-.152344 15.71875-.742187 32.039063-1.261719 46.433594l-.097656 2.707031c-.277344 7.804688-.566406 15.878906-.78125 23.792969l-.011719.484375c-.4375 15.726562-.886719 31.984375-1.8125 47.9375-.109375 1.765625-.222656 3.488281-.34375 5.210938l-.527343 7.558593zm0 0" fill="#288fc9"/><path d="m407.113281 424.605469c-10.671875-32.550781-16.195312-68.644531-16.890625-110.347657l-.039062-2.234374 2.226562.167968c7.273438.683594 14.523438 1.03125 21.550782 1.03125 6.949218 0 14.050781-.332031 21.105468-.992187l2.78125-.257813-28.535156 119.351563zm0 0" fill="#288fc9"/><path d="m371.660156 223.433594c-12.222656 0-24.214844-1.367188-35.351562-2.847656-13.902344-1.847657-28.589844-4.128907-41.886719-9.855469-1.878906-.800781-3.753906-1.742188-4.679687-3.207031-.824219-1.296876-.984376-3.128907-1.121094-4.746094-1.605469-18.3125-2.597656-37.0625-2.960938-55.726563l-.066406-3.589843 3.089844 1.832031c8.40625 4.988281 18.335937 6.75 28.625 8.25 11.644531 1.703125 24.070312 3.359375 36.691406 3.359375 2.066406 0 4.085938-.042969 6.003906-.125 16.144532-.734375 30.082032-4.597656 41.429688-11.472656l.597656-.359376.6875.085938c3.214844.398438 6.476562.601562 9.703125.601562.433594 0 .875-.007812 1.308594-.015624l1.761719-.039063.296874 1.742187c3.109376 20.828126 3.65625 41.980469 1.625 62.867188-.144531 1.492188-.296874 2.695312-.890624 3.546875-.628907.898437-1.8125 1.476563-3.078126 2.039063-11.832031 5.164062-25.476562 7.660156-41.785156 7.660156zm0 0" fill="#288fc9"/><path d="m340.0625 410.535156.160156-49.058594c.058594-18.726562.121094-38.089843.972656-57.550781l.113282-2.628906 2.503906.816406c13.167969 4.292969 26.863281 7.386719 40.695312 9.1875l2.542969.328125-.9375 2.386719c-12.894531 32.710937-27.105469 65.476563-42.246093 97.386719zm0 0" fill="#288fc9"/><path d="m230.625 170.382812c.066406-2.847656.136719-5.714843.199219-8.582031l.03125-1.53125 1.484375-.367187c7.800781-1.933594 15.859375-2.914063 23.957031-2.914063 8.167969 0 16.308594.996094 24.199219 2.964844l1.457031.363281.058594 1.503906c.382812 10.339844.953125 20.621094 1.695312 30.554688l.1875 2.53125-2.503906-.410156c-5.953125-.96875-12.039063-1.460938-18.089844-1.460938-10.40625 0-20.757812 1.433594-30.773437 4.261719l-2.613282.738281zm0 0" fill="#288fc9"/><path d="m172.199219 223.699219c-5.175781 0-10.359375-.355469-15.410157-1.054688l-3.65625-.507812 2.417969-2.785157c3.027344-3.484374 6.144531-7.484374 9.273438-11.886718.457031-.644532.378906-1.316406.289062-1.660156l-.085937-.335938.035156-.347656c.023438-.277344.011719-.695313-.199219-1.105469-2.101562-4.105469-6.308593-6.355469-10.539062-8.175781-7.660157-3.3125-15.671875-6.082032-23.8125-8.234375-1.121094-.296875-2.253907-.558594-3.363281-.8125l-.535157-.121094c-2.480469-.5625-5.054687-1.148437-7.378906-2.03125l-1.292969-.488281v-1.484375l.011719-.101563-1.707031-37.875 2.984375 1.375c14.871093 6.863282 31.945312 7.855469 48.179687 7.90625h1.292969c17.648437 0 38.027344-1.148437 55.347656-9.675781l2.875-1.414063.007813 3.207032c.019531 8.242187-.175782 16.472656-.382813 24.195312l-1.019531 40.332032-1.050781.542968c-15.894531 8.203125-33.972657 12.539063-52.28125 12.539063zm0 0" fill="#288fc9"/><path d="m122.550781 334.65625c-10.109375 0-21.320312-.667969-33.316406-1.984375-14.210937-1.566406-29.316406-3.765625-43.527344-9.21875-1.554687-.601563-2.554687-1.089844-3.117187-1.839844-.515625-.699219-.730469-1.742187-.914063-3.203125-.796875-6.140625-1.300781-12.433594-1.492187-18.695312l-.109375-3.53125 3.085937 1.726562c15.839844 8.851563 34.613282 11.488282 52.542969 13.019532 10.132813.863281 18.445313 1.265624 26.160156 1.265624 23.679688 0 42.816407-3.988281 58.503907-12.191406l2.960937-1.550781-.035156 3.34375c-.0625 6.234375-.730469 12.714844-1.375 18.230469-.167969 1.433594-.328125 2.273437-.742188 2.882812-.382812.535156-.984375 1.019532-2.773437 1.777344-10.824219 4.636719-26.960938 9.96875-55.851563 9.96875zm0 0" fill="#288fc9"/><path d="m507.132812 83.117188c5.523438-14.164063 6.378907-29.179688 2.40625-42.285157-8.980468-29.621093-44.464843-47.582031-75.945312-38.4375-9.523438 2.769531-19.164062 7.214844-29.472656 13.597657-27.441406 16.992187-45.691406 39.910156-51.390625 64.535156-1.324219 5.71875-2.308594 13.144531-1.464844 21.042968-21.15625.101563-42.203125 3.070313-62.558594 8.832032-1.859375.527344-4.964843 1.40625-7.023437 4.019531-2.15625 2.742187-2.191406 6.175781-2.210938 8.230469-.035156 3.394531-.050781 6.800781-.042968 10.207031-2.703126-.875-5.449219-1.59375-8.230469-2.144531.289062-5.589844.09375-11.210938-.59375-16.753906-.351563-2.851563-.96875-5.816407-3.074219-8.195313-2.070312-2.335937-4.875-3.269531-6.808594-3.769531-6.574218-1.699219-14.824218-.492188-18.460937 6.035156-1.691407 3.035156-1.820313 6.402344-1.742188 9 .144531 4.730469.984375 9.300781 1.929688 13.742188-3.292969.660156-6.539063 1.546874-9.710938 2.65625-.097656-2.480469-.21875-4.960938-.386719-7.433594-.273437-4.0625-.839843-8.695313-4.023437-12.222656-2.535156-2.8125-5.9375-4.027344-8.929687-4.945313-17.929688-5.503906-48.269532-11.027344-104.539063 4.460937-1.152344.3125-3.542969.972657-4.898437 3.304688-.96875 1.667969-.890626 3.398438-.847657 4.324219l2.523438 56.167969c-1.21875-1.140626-2.394531-2.316407-3.550781-3.472657-6.425782-6.4375-13.066407-13.074219-25.625-12.261719l-2.398438-9.332031c-.550781-2.15625-2.75-3.460937-4.90625-2.902343-2.15625.554687-3.457031 2.75-2.902344 4.910156l2.296875 8.9375c-10.566406 3.726562-18.949219 13.25-20.714843 24.472656l-.054688.347656c-.058594.398438-.152344 1-.179688 1.097656-.25.261719-1.316406.667969-1.832031.863282-17.597656 6.699218-33.863281 16.195312-48.34375 28.234375-.746093.617187-1.230469 1.476562-1.394531 2.410156-1.824219 1.046875-2.558594 3.328125-1.625 5.246094 4 8.21875 11.613281 15.085937 21.429688 19.339843 9.328124 4.042969 19.417968 5.308594 27.167968 5.953126 5.667969.476562 11.335938.710937 16.992188.710937 3.132812 0 6.261718-.09375 9.386718-.238281l.503907 6.089844c-11.429688 1.128906-22.773438 2.941406-33.875 5.441406-.003907 0-.003907 0-.003907 0-1.214843.273437-3.476562.785156-5.019531 2.808594-1.15625 1.507812-1.371093 3.226562-1.484375 4.148437-2.03125 16.371094-1.980468 32.960937.160156 49.316406.203126 1.5625.511719 3.921875 2.03125 5.984375 1.59375 2.164063 3.847657 3.15625 5.832032 3.917969 8.523437 3.269531 17.273437 5.410156 25.9375 6.945313l-.792969 58.1875c-.035156 2.660156-.101563 7.609374 3.558594 10.777343 1.601562 1.382813 3.644531 2.117188 5.847656 2.117188.359375 0 .722656-.019531 1.089844-.058594 3.085937-.332031 6.050781-2.027344 7.925781-4.527344 2.871094-3.835937 3.257812-8.683593 3.515625-11.894531 1.367187-17.183594 1.652344-34.617188 1.882813-51.546875 2.527343.257813 5.117187.492187 7.753906.710937v50.84375c0 .46875.09375.914063.242187 1.335938-6.613281 4.054688-10.902343 10.328125-12.058593 16.203125-.378907 1.929687-.488282 3.832031-.382813 5.675781l-46.292969 28.902344c-2.675781 1.671875-8.945312 5.585938-8.84375 12.195312.09375 6.417969 6.207032 10.554688 11.8125 10.707032.140625.003906.277344.007812.414063.007812 4.722656 0 8.878906-2.175781 12.417969-4.222656 15.507812-8.976562 29.652343-20.191406 43.328124-31.046875.964844.339844 1.960938.652344 3.015626.898437 2.351562.546876 4.726562.816407 7.070312.816407 4.199219 0 8.28125-.878907 11.9375-2.542969l27.230469 29.519531c2.152343 2.332031 4.59375 4.980469 7.777343 6.863281 2.605469 1.539063 5.398438 2.328126 8.070313 2.328126 1.445313 0 2.855469-.230469 4.179687-.699219 5.058594-1.792969 8.132813-7.019531 7-11.898438-.652343-2.820312-2.53125-4.886719-3.777343-6.253906-11.5625-12.691406-23.957031-24.871094-36.839844-36.226563.878906-3.71875.839844-7.59375-.28125-11.183593-1.90625-6.109375-5.898437-10.5-11.289063-12.734375-.164062-16.148438.324219-32.480469 1.453126-48.574219 17.339843-.328125 35.503906-2.8125 52.476562-9.714844 12.765625 21.15625 36.917969 35.109375 61.628906 35.542969-.167968.863281-.339844 1.722656-.496094 2.585938-.378906 2.121093-.683593 4.210937-.207031 6.496093.117188.558594.292969 1.105469.5 1.640625-6.285156 6.582032-12.175781 13.625-17.527343 20.976563-.808594 1.113281-2.164063 2.980469-2.273438 5.472656-.191406 4.4375 3.335938 7.855469 9.429688 9.136719 10.257812 2.152344 20.644531 3.230468 31.058593 3.230468 6.375 0 12.757813-.402343 19.125-1.214843 4.457031-.566407 9.207031-1.367188 13.742188-3.359375 1.175781-.519532 2.507812-1.242188 3.484375-2.6875 1.992187-2.953125.71875-6.265625.300781-7.351563-3.207031-8.351562-8.253906-19.664062-15.992187-25.34375.25-1.5625.050781-2.992187-.078126-3.902343-.335937-2.324219-.769531-4.621094-1.253906-6.902344 12.375-.917969 21.882813-2.820313 30.496094-6.09375 8.542969-3.246094 16.984375-8.796875 23.390625-15.144532-.039063 5.816407-.0625 11.609376-.082031 17.355469l-.210938 66.023438c-.011718 4.597656-.027344 9.804687 1.820313 14.761719 2.425781 6.515624 7.863281 12.078124 16.15625 16.53125 12.878906 6.914062 27.792969 9.242187 40.761719 10.878906 11.324218 1.429687 23.472656 2.613281 35.824218 2.613281 15.351563 0 31.019532-1.828125 45.792969-7.265625 3.394531-1.25 6.90625-2.800781 9.609375-5.660156 2.878906-3.042969 4.222656-6.984375 5.070312-10.078125 2.226563-8.089844 2.847657-16.292969 3.335938-24.6875.941406-16.179688 1.394531-32.613281 1.832031-48.511719l.003907-.105469c.242187-8.800781.5625-17.769531.875-26.445312.644531-17.90625 1.308593-36.421875 1.3125-54.640625.003906-10.246094.007812-34.234375-24.621094-38.136719-11.261719-1.785156-22.90625-1.796875-34.167969-1.8125-2.730469 0-5.449219-.003906-8.148437-.03125-20.667969-.214844-43.613282-.441406-65.433594 4.554687-.660156-11.0625-4.421875-21.785156-10.808594-30.835937 6.09375.542969 12.300781.890625 18.535156.890625 14.925782 0 30.019532-2 44.097656-8.144531 1.414063-.617188 4.050782-1.765625 5.722657-4.191407 1.527343-2.210937 1.769531-4.730468 1.929687-6.394531 2.058594-21.191406 1.527344-42.601562-1.5625-63.667969 21.632813-2.371093 43.585938-12.730468 61.296875-29.628906 11.15625-10.632812 19.214844-22.195312 23.957031-34.355468zm-151.703124 33.648437c1.886718 4.011719 4.464843 7.75 7.582031 11.160156-23.757813 5.449219-49.789063 1.761719-71.128907-10.03125 19.546876-5.441406 39.742188-8.226562 60.035157-8.269531.292969 0 .574219-.035156.847656-.09375.667969 2.417969 1.539063 4.839844 2.664063 7.234375zm-312.648438 161.222656c5.71875 4.796875 12.632812 7.71875 18.9375 9.96875 18.003906 6.421875 36.894531 9.660157 55.84375 9.660157 11.074219 0 22.171875-1.105469 33.117188-3.332032 7.628906-1.550781 18.625-4.320312 28.039062-10.613281 1.148438 2.957031 1.84375 6.28125 2.21875 9.84375-.71875-.039063-1.457031.101563-2.136719.472656-25.074219 13.671875-55.816406 13.183594-82.585937 10.898438-17.769532-1.511719-37.988282-4.050781-54.074219-14.707031.082031-4.066407.292969-8.136719.640625-12.191407zm106.292969 8.394531c-28.238281 5.742188-57.507813 3.660157-84.648438-6.019531-6.257812-2.234375-13.164062-5.167969-18.164062-10.09375 14.339843-3.085937 29.074219-5.035156 43.84375-5.761719 24.117187-1.191406 54.753906-1.386718 77.742187 7.730469 2.707032 1.074219 4.898438 2.621094 6.671875 4.535157-8.292969 5.640624-18.421875 8.183593-25.445312 9.609374zm-45.667969-30.429687c-.007812-2.585937-.140625-5.167969-.394531-7.734375 4.425781-.824219 8.835937-1.785156 13.214843-2.90625 7.699219-1.96875 16.644532-4.6875 24.609376-9.957031 3.160156-2.089844 6.308593-4.621094 9.472656-7.617188 6.464844 1.226563 13.050781 1.890625 19.664062 2.011719-.8125 1.058594-1.507812 2.082031-2.078125 2.96875-5.414062 8.4375-8.648437 18.09375-9.429687 28.066406-17.511719-4.460937-37.234375-5.21875-55.058594-4.832031zm53.652344-35.292969c3.09375-3.554687 6.21875-7.554687 9.394531-12.039062.707031-1 .878906-2.207032.601563-3.308594.070312-.742188-.058594-1.503906-.417969-2.207031-2.378907-4.65625-6.945313-7.128907-11.523438-9.105469-7.777343-3.359375-15.878906-6.160156-24.089843-8.324219-1.320313-.347656-2.660157-.652343-3.960938-.949219-2.507812-.570312-4.929688-1.128906-7.121094-1.949218 0-.082032.015625-.15625.011719-.238282l-1.558594-34.660156c15.011719 6.941406 32.328125 8.042969 49.003907 8.089844.4375.003906.867187.003906 1.304687.003906 19.046875 0 38.902344-1.34375 56.222656-9.882812.027344 8.101562-.171875 16.195312-.371093 24.140625l-.992188 39.15625c-20.191406 10.410156-43.96875 14.390625-66.503906 11.273437zm67.085937-96.03125c.066407.632813.121094 1.277344.164063 1.917969.246094 3.625.40625 7.273437.503906 10.929687-.542969.039063-1.089844.183594-1.601562.457032-16.617188 8.863281-36.585938 10.054687-55.785157 9.972656-16.0625-.046875-34.375-.847656-49.445312-9.296875l-.507813-11.242187c8.777344 5.273437 18.839844 7.335937 27.050782 8.523437 6.730468.976563 14.5 1.683594 22.910156 1.683594 17.398437 0 37.515625-3.039063 56.710937-12.945313zm8.472657 45.804688c.070312-2.847656.140624-5.714844.203124-8.59375 15.449219-3.824219 31.753907-3.800782 47.1875.054687.382813 10.230469.949219 20.453125 1.703126 30.632813-16.566407-2.699219-33.582032-1.714844-49.726563 2.851562zm54.910156-45.746094c16.164062 9.039062 34.859375 13.761719 53.46875 13.761719 9.226562 0 18.433594-1.15625 27.296875-3.519531.574219-.152344 1.082031-.429688 1.511719-.789063 5.742187 4.417969 12.582031 7.921875 20.144531 10.230469-8.765625 3.699218-18.886719 5.828125-30.222657 6.339844-13.941406.632812-28.164062-1.21875-41.542968-3.167969-11.589844-1.6875-21.820313-3.582031-29.683594-9.675781-.300781-.234376-.628906-.402344-.96875-.535157-.03125-4.21875-.039062-8.4375-.003906-12.644531zm-38.949219-7.898438c-.042969-1.5625-.003906-3.519531.726563-4.832031 1.449218-2.601562 5.921874-3.050781 9.398437-2.152343 1.402344.363281 2.34375.804687 2.789063 1.3125.648437.730468.917968 2.277343 1.113281 3.835937.601562 4.851563.785156 9.761719.574219 14.648437-4.238282-.355468-8.5-.355468-12.734376.019532-.910156-4.253906-1.738281-8.59375-1.867187-12.832032zm30.433594 24.433594c.160156.058594.324219.085938.488281.125.050781 4.0625.128906 8.128906.238281 12.199219-15.351562-3.480469-31.417969-3.488281-46.773437-.015625.042968-3.851562.050781-7.714844 0-11.585938 14.609375-5.804687 31.257812-6.097656 46.046875-.722656zm-61.980469-24.6875c1.019531.3125 2.097656.667969 3.0625 1.117188-26.476562 13.527344-55.015625 13.074218-74.410156 10.261718-7.652344-1.109374-17.046875-3.023437-24.773438-7.90625 25.847656-6.855468 62.433594-13.8125 96.121094-3.472656zm-155.230469 72.15625c1.578125-10.011718 10.730469-18.480468 20.835938-19.28125 9.140625-.722656 13.820312 3.964844 19.742187 9.898438 2.625 2.632812 5.339844 5.351562 8.648438 7.792968.097656.074219.199218.128907.296875.199219-.011719.027344-.027344.050781-.035157.078125-.796874 2.675782-3.976562 4.789063-9.449218 6.285156-8.972656 2.453126-18.222656 3.277344-27.488282 2.445313-5.769531-.515625-10.125-1.640625-13.617187-3.488281.671875-1.316406.871094-2.632813 1.023437-3.625zm-7.59375 8.765625c.335938.640625.835938 1.207031 1.503907 1.601563 4.707031 2.792968 10.402343 4.40625 17.917968 5.082031 2.574219.230469 5.144532.347656 7.707032.347656 7.632812 0 15.21875-1.019531 22.628906-3.046875 7.742187-2.117187 12.660156-5.679687 14.640625-10.601562 2.257812.738281 4.53125 1.265625 6.667969 1.75 1.289062.292968 2.507812.570312 3.695312.882812 7.820312 2.0625 15.539062 4.730469 22.945312 7.929688 1.765626.761718 3.636719 1.628906 5.136719 2.726562-14.746093 9.5-33.242187 15.992188-56.371093 19.804688-18.230469 3.003906-36.832032 4.0625-55.28125 3.136718-10.402344-.519531-22.09375-1.753906-32.199219-6.585937 12.480469-9.636719 26.25-17.363281 41.007812-23.027344zm-4.523437 45.4375c-7.136719-.59375-16.386719-1.738281-24.636719-5.316406-5.019531-2.171875-9.308594-5.125-12.59375-8.613281 10.625 4.421875 22.195313 5.640625 32.542969 6.160156 4.441406.21875 8.894531.332031 13.347656.332031 14.609375 0 29.238281-1.195312 43.644531-3.570312 18.011719-2.964844 33.402344-7.527344 46.558594-13.824219-4.113281 4.410156-8.148437 7.914062-12.160156 10.566406-6.96875 4.609375-15.109375 7.070313-22.15625 8.871094-21.113281 5.398438-42.835938 7.210938-64.546875 5.394531zm33.75 7.976563c3.878906-.335938 7.75-.789063 11.609375-1.347656.203125 2.21875.308593 4.449218.304687 6.679687-1.914062.074219-3.796875.160156-5.640625.25-1.925781.09375-3.855469.210937-5.78125.347656zm-39.242188 69.539062c-.285156-.386718-.445312-1.601562-.53125-2.25-.804687-6.144531-1.289062-12.324218-1.476562-18.511718 15.976562 8.9375 34.976562 11.710937 53.34375 13.273437 8.476562.722656 17.34375 1.269531 26.339844 1.269531 20.175781 0 40.980468-2.765625 59.425781-12.414062-.058594 5.851562-.65625 12.019531-1.363281 18.015625-.066407.589843-.199219 1.683593-.410157 1.988281-.246093.351562-1.445312.867188-1.898437 1.0625-15.160156 6.496094-38.878906 13.253906-88.164063 7.835938-14.066406-1.546876-29.015625-3.71875-43.039062-9.097657-.570313-.21875-1.902344-.730469-2.226563-1.171875zm36.453125 77.304688c-.527343.699218-1.488281 1.253906-2.339843 1.347656-.210938.023438-.59375.03125-.796876-.144531-.824218-.710938-.785156-3.511719-.769531-4.566407l.777344-57.023437c2.324219.328125 4.632813.621094 6.925781.890625-.226562 17.042969-.5 34.609375-1.867187 51.796875-.25 3.136719-.566407 5.878906-1.929688 7.699219zm-27.125 56.777344c-2.808593 1.628906-5.761719 3.234374-8.574219 3.132812-1.949218-.050781-3.953124-1.449219-3.972656-2.769531-.027344-1.84375 2.871094-3.871094 5.054688-5.234375l44.273437-27.640625c.425781.765625.882813 1.507812 1.417969 2.195312.515625.65625 1.105469 1.269531 1.726562 1.855469-12.695312 10.066406-25.828124 20.300781-39.925781 28.460938zm113.90625.394531c.722657.789062 1.710938 1.875 1.886719 2.644531.195312.835938-.734375 2.085938-1.839844 2.476562-1.488281.527344-3.527344.167969-5.453125-.96875-2.164062-1.28125-4.089843-3.371093-5.953125-5.390624l-26.347656-28.558594c1.308594-1.234375 2.457031-2.609375 3.441406-4.085938 11.964844 10.667969 23.484375 22.046875 34.265625 33.882813zm-38.851562-50.441407c1.632812 5.230469-.578125 11.761719-5.25 15.53125-4.503907 3.632813-11.242188 4.972657-17.59375 3.492188-2.414063-.5625-5.703125-1.761719-7.65625-4.261719-1.796875-2.292969-2.445313-5.824219-1.730469-9.441406 1.621094-8.246094 10.765625-13.613281 18.664062-14.039063 3.976563-.214843 11.039063.628907 13.566407 8.71875zm-14.003907-16.769531c-2.203124.117188-4.285156.480469-6.261718 1.007813l.003906-48.3125c3.289062.179687 6.640625.308594 10.039062.367187-1.078124 15.546875-1.558593 31.308594-1.449218 46.914063-.761719-.019532-1.539063-.023438-2.332032.023437zm154.753907-58.035156c-4.226563 2.167969-8.433594 3.183594-12.160157 2.953125-4.078124-.253906-7.75-2.074219-9.828124-4.871094-3.058594-4.117187-2.3125-8.34375-1.148438-11.164062 2.410156-5.832032 8.507812-10.71875 14.5-11.613282 4.363281-.652343 9.558594 2.183594 12.945312 7.058594 3.035157 4.367188 3.699219 9.054688 1.773438 12.539063-1.027344 1.859375-3.015625 3.527343-6.082031 5.097656zm-12.664063 11c.53125.035156 1.070313.050781 1.605469.050781 1.421875 0 2.863281-.128906 4.316406-.359375.003907.007813.003907.019531.011719.027344 5.648438 10.296875 9.359375 21.410156 11.035156 33.035156.09375.667969.136719 1.132813.117188 1.386719-.160156.113281-.523438.308594-1.332032.609375-4.996093 1.851563-10.429687 2.785156-15.773437 2.6875-2.75-.050781-4.640625-.382813-6.128906-1.082031-1.453125-.679688-2.546875-1.855469-2.78125-2.992188-.183594-.871094.003906-2.066406.246093-3.425781 1.832032-10.175781 4.53125-20.253906 8.015626-29.992187.222656.015624.445312.042968.667968.054687zm33.484375 63.722656c-3.472656 1.429688-7.335937 2.0625-11.015625 2.53125-15.867187 2.019531-31.851562 1.375-47.503906-1.910156-1.503906-.316406-2.457031-.785156-2.894531-1.097656.183593-.304688.46875-.699219.601562-.878907 4.972657-6.832031 10.429688-13.394531 16.25-19.539062.480469.296875.980469.578125 1.503907.828125 3.292968 1.542969 6.761718 1.792969 9.414062 1.839844.304688.003906.601562.007812.90625.007812 6.09375 0 12.082031-1.070312 17.804688-3.191406.347656-.128906.832031-.316406 1.375-.5625 6.933593 4.753906 11.871093 17.582031 13.558593 21.972656zm198.136719-109.492187c0 .050781-.003906.105468-.003906.15625-.75-.199219-1.5625-.183594-2.351563.085937-45.871093 15.878907-96.328125 16.046875-142.304687.542969.234375-4.140625.496094-8.269531.816406-12.386719 21.730469 8.722657 45.292969 13.085938 68.867188 13.085938 25.390624 0 50.796874-5.058594 73.898437-15.15625.800781 3.957031 1.078125 8.539062 1.078125 13.671875zm-146.214844 115.671875.15625-49.058594c.058594-18.875.128906-38.226563.96875-57.46875 13.402344 4.371094 27.15625 7.457031 41.058594 9.269531-12.898438 32.730469-27.070312 65.390625-42.183594 97.257813zm42.773438-77.050781c2.160156 39.3125 8.996094 73.828124 20.75 105.003906-11.6875-1.597656-23.285156-3.914063-34.738282-6.964844-8.652343-2.308594-17.585937-5.15625-24.988281-10.21875 13.820313-28.757812 26.894531-58.207031 38.976563-87.820312zm24.175781 90.496093c-10.59375-32.3125-16.101563-68.378906-16.792969-109.765625 0-.015625-.003906-.027344-.003906-.042968 7.230469.6875 14.488281 1.042968 21.746094 1.042968 7.105468 0 14.210937-.34375 21.292968-1zm31.378906-96.570312c4.523438 12.265625 8.164063 24.96875 11.710938 37.351562 2.835937 9.890625 5.769531 20.117188 9.125 30.0625 4.839843 14.328125 10.699219 28.457031 17.417969 42.023438-7.070313 3.09375-15.195313 3.695312-22.296876 4-14.3125.621093-28.605468.15625-42.78125-1.371094.042969-.121094.089844-.242187.121094-.367187zm37.660157 126.386719c-1.472657 1.558593-3.679688 2.578124-6.535157 3.628906-25.039062 9.222656-53.390625 7.308594-77.820312 4.222656-12.8125-1.617188-26.296875-3.722656-37.960938-9.984375-6.515625-3.5-10.691406-7.617187-12.414062-12.242187-1.234375-3.316407-1.316407-7.1875-1.3125-10.996094 8.214843 5.433594 17.65625 8.457031 26.765625 10.890625 24.597656 6.554687 49.847656 9.863281 75.242187 9.863281 4.226563 0 8.453125-.09375 12.683594-.277344 7.851563-.339844 16.882813-1.023437 25.226563-4.691406-.21875.980469-.453126 1.949219-.71875 2.914062-.640626 2.324219-1.511719 4.9375-3.15625 6.671876zm8.039062-78.0625-.003906.101562c-.433594 15.835938-.886719 32.210938-1.820313 48.265625-.101562 1.738281-.214843 3.46875-.339843 5.1875-5.75-12.015625-10.808594-24.453125-15.058594-37.042969-3.296875-9.765625-6.203125-19.90625-9.015625-29.707031-4.683594-16.347656-9.535157-33.238281-16.40625-49.230469 15.191406-1.96875 30.210937-5.453125 44.785156-10.472656-.15625 15.5-.714844 31.164062-1.261719 46.382812-.3125 8.691407-.636718 17.679688-.878906 26.515626zm-70.289062-112.878907c4.523437 0 9.035156.046875 13.515624.09375 2.722657.03125 5.46875.03125 8.222657.035157 10.953125.011718 22.277343.023437 32.917969 1.710937 7.070312 1.121094 11.445312 4.191406 14.089843 8.921875-.1875.050781-.375.097656-.558593.179688-43.023438 18.8125-94.355469 19.320312-137.792969 1.472656.183593-.3125.382812-.609375.609375-.878906 1.417968-1.675782 3.988281-2.671876 6.285156-3.476563 20.035156-7.015625 41.492188-8.058594 62.710938-8.058594zm-71.148438-32.167969c7.03125 8.738282 11.023438 19.636719 11.339844 30.835938-1.867188.550781-3.726563 1.132812-5.566406 1.777344-3.539063 1.242187-7.175782 2.8125-9.773438 5.878906-3.246094 3.835938-3.878906 8.707031-4.246094 13.367188-1.285156 16.230468-1.808594 32.625-2.039062 48.882812-.09375.113281-.199219.21875-.28125.34375-5.296875 8.003906-15.789063 16.015625-26.105469 19.933594-8.167969 3.101562-17.367187 4.871094-29.632813 5.6875-1.972656-6.699219-4.617187-13.179688-7.898437-19.398438.847656-.363281 1.695313-.75 2.546875-1.1875 4.539062-2.324218 7.636719-5.066406 9.464844-8.375 3.445312-6.226562 2.617187-14.09375-2.207032-21.039062-5.175781-7.449219-13.328124-11.542969-20.761718-10.433594-8.75 1.3125-17.285156 8.101562-20.761719 16.511719-2.769531 6.707031-2.011719 13.472656 2.132813 19.050781 1.847656 2.488281 4.390624 4.507812 7.324218 5.914062-2.324218 6.566407-4.300781 13.277344-5.917968 20.070313-22.558594.210937-44.855469-12.375-56.480469-31.6875.117187-.144531.238281-.285156.34375-.441406 1.367187-1.964844 1.628906-4.183594 1.800781-5.652344 1.933594-16.425781 5.535156-47.007813-17.121094-55.992187-1.445312-.574219-2.921875-1.109376-4.417968-1.617188.421874-9.253906 3.277343-18.253906 8.285156-26.050781 2.019531-3.148438 3.894531-5.214844 5.894531-6.5.496094-.320313.894531-.734375 1.195313-1.199219 16.671874-1.328125 33.113281-6.0625 47.6875-13.988281 1.265624-.6875 2.070312-2 2.105468-3.4375l.203125-8.101563c16.355469-5.046875 33.765625-6.082031 50.609375-3.015625.066406.824219.125 1.648438.199219 2.46875.179687 2.078125.429687 4.925781 2.035156 7.464844 1.792969 2.835937 4.621094 4.335937 7.40625 5.535156 13.992188 6.023438 29.15625 8.386719 43.484375 10.292969 2.726563.363281 5.5.714844 8.304688 1.042969-.140625 1.058593.125 2.164062.847656 3.058593zm70.765625-20.699218c-.082031.835937-.203125 2.101562-.542969 2.59375-.367187.535156-1.679687 1.105468-2.3125 1.382812-23.875 10.421875-51.746094 7.855469-76 4.628906-13.769531-1.832031-28.308594-4.085937-41.355468-9.703124-1.597657-.6875-3.160157-1.460938-3.785157-2.441407-.554687-.882812-.695312-2.464843-.816406-3.855469-1.609375-18.414062-2.585937-37.027343-2.945313-55.589843 8.625 5.117187 18.8125 6.972656 29.355469 8.511719 11.855469 1.726562 24.378907 3.378906 36.988281 3.378906 2.027344 0 4.054688-.042969 6.082032-.132813 16.5-.75 30.757812-4.703125 42.378906-11.753906 3.28125.40625 6.601562.613281 9.949219.613281.464843 0 .929687-.007812 1.394531-.015625 3.078125 20.632813 3.625 41.617188 1.609375 62.382813zm62.195313-98.351563c-23.347657 22.269531-54.429688 32.292969-81.125 26.15625-15.628907-3.59375-28.25-12.742187-33.765626-24.464843-5.160156-10.972657-4.011718-22.910157-2.144531-30.992188 5.214844-22.511719 22.183594-43.640625 47.78125-59.496094 9.679688-5.992187 18.667969-10.148437 27.480469-12.710937 12.675781-3.683594 27.175781-2.3125 39.78125 3.753906 13.078125 6.292969 22.378906 16.691406 26.195312 29.28125 3.453126 11.382813 2.671876 24.527344-2.199218 37.011719-4.3125 11.058594-11.714844 21.640625-22.003906 31.460937zm0 0"/><path d="m450.792969 48.339844c-5.53125-5.058594-12.683594-6.921875-20.136719-5.238282-14.644531 3.304688-27.035156 17.664063-28.207031 32.691407-.546875 6.976562 1.332031 12.917969 5.289062 16.726562 3.214844 3.097657 7.898438 4.855469 13.914063 5.234375.941406.0625 1.878906.089844 2.816406.089844 4.066406 0 8.101562-.554688 12.035156-1.652344 6.007813-1.683594 10.882813-4.433594 14.484375-8.175781 5.273438-5.480469 7.140625-12.339844 7.78125-17.128906 1.117188-8.386719-1.9375-17.027344-7.976562-22.546875zm-.015625 21.480468c-.675782 5.082032-2.664063 9.554688-5.597656 12.601563-2.589844 2.691406-6.242188 4.710937-10.847657 6.003906-3.964843 1.109375-8.058593 1.542969-12.171875 1.28125-4.058594-.253906-7.027344-1.261719-8.828125-2.996093-2.15625-2.074219-3.191406-5.824219-2.84375-10.292969v.003906c.898438-11.507813 10.742188-22.925781 21.945313-25.453125 4.804687-1.085938 9.394531.097656 12.921875 3.320312 4.117187 3.765626 6.195312 9.71875 5.421875 15.53125zm0 0"/></svg>